<svg xmlns="http://www.w3.org/2000/svg" width="984.45mm" height="227.39mm" viewBox="0 0 2790.58 644.57"><defs><style>.a{fill:#fff;}</style></defs><title>abel-and-cole</title><path class="a" d="M506.83,363.33c4.37-.55,8.07-1.39,10.89-4.8a16.24,16.24,0,0,1,4.7-3.61c8.14-4.53,16.18-9.81,25-12.25,6.42-1.77,13.22-4,20.29-3.26,2.18.24,4.44-.39,6.66-.41,10.62-.06,21.25-.26,31.86.06,3.89.11,7.74,1.52,11.61,2.33,4.6.95,9.2,1.88,13.8,2.85,1.22.25,2.74.24,3.6,1,8.53,7.19,19.51,11,26.87,19.85,9.41,11.27,18.45,22.88,25.84,35.54,3.06,5.23,4.44,11.69,5.52,17.77,2.53,14.29,5,28.64,6.4,43.07,1.1,11.36,0,22.93.92,34.32s-2.8,22.65-1,34.14c.54,3.43-1.05,7.26-1.91,10.85-1.79,7.47-3.75,14.9-5.6,22.36-.18.72.13,1.59-.14,2.23-3.58,8.46-6.76,17.12-11,25.25-4.48,8.66-11.12,15.85-18.05,22.71a11.87,11.87,0,0,1-9.53,3.5c-3.19-.17-6.39-.37-9.19-.53-.73.91-1.31,1.3-1.3,1.68,0,6.61-1.7,11.69-9.44,12.61-1.56.19-3,1.71-4.43,2.69-1,.69-1.87,2-3,2.18-6.58,1.24-13.19,2.37-19.82,3.3-7.64,1.06-15.29,2.08-23,2.72-3.38.28-6.83-.41-10.26-.68a43.4,43.4,0,0,0-5.2-.43,57.26,57.26,0,0,1-29.57-6.61,6.08,6.08,0,0,0-2-.93c-16.6-1.59-27.81-12.23-38.74-23.21-4.87-4.89-7.2-5.1-11.39-.11A228.87,228.87,0,0,1,464.41,632c-7.93,7.15-18.12,9.58-28.51,10.18-9.87.58-19.85-.4-29.65.59-16.72,1.71-33.26-1.49-49.92-.79-14.64.62-29.29.79-43.94.94-11.45.12-22.9,0-34.34-.24-2.45-.05-4.87-1.11-7.34-1.41-6.36-.78-9.95-4.84-11.35-10.5-1.82-7.42-3-15-4.16-22.56-.78-5-1.23-10-1.64-15-.58-6.84.74-8.57,7.69-8.66,5.57-.07,10.24-1.66,12.22-6.89,1.28-3.38,2-7.75,1-11.06-3.25-10.59-7.43-20.9-11.21-31.21-9,0-17.42-.34-25.83.08-14.14.71-28.25,1.92-42.37,2.91-6.36.44-12.72.84-19.09,1.25a1.7,1.7,0,0,1-.74,0c-9.66-4.87-20.28-.16-30.15-3-1.66-.48-3.37-.78-5.44-1.26-5,4-9,8.49-10,15.67-.79,5.61-3.39,10.95-4.76,16.52-2.4,9.73,1.57,15.84,11.44,18.14,1.71.4,3.5.48,5.2.9,5.21,1.28,6.8,3.23,5.87,8.52-1.93,11-4.17,22-6.41,33a39.87,39.87,0,0,1-2.61,9.07c-3.22,6.79-10.21,6.9-15.95,6.62-6.42-.31-12.72-.87-19.23-.55-10.35.51-20.75-.26-31.13-.52-1.24,0-2.65-.76-3.69-.38-7.63,2.78-15.33.87-23,.82-8.22-.05-16.46.67-24.68,1.29-6.93.52-10.36-1.26-11.88-8.19-1.87-8.5-5.59-16.57-5.29-25.63C3.6,606.81,2,602.85.92,599c-2.88-10.14,1-16.2,11.48-17.8,3.69-.57,7.33-1.47,11-2.18,5.29-1,7.8-4.73,9.93-9.3a211.58,211.58,0,0,0,13-37.3c2.41-9.39,5.19-19,9.76-27.43,4.3-7.92,5.09-16.49,8-24.59,1.32-3.72,3.22-7.23,4.87-10.83.31-.68.94-1.31,1-2,1.42-13.74,10.25-25.16,12.14-38.76.19-1.39.87-3.23,1.94-3.9,4-2.51,3.83-6.84,5-10.54,1.35-4.24,2.24-8.62,3.62-12.85,2.93-9,6-17.93,9.09-26.87a58.4,58.4,0,0,1,2.32-5.48c1.68-3.61,3.6-7.13,5.1-10.82,4-9.93,8.07-19.85,11.69-29.94,2.4-6.68-.32-10.47-7.25-11.29-2.46-.3-5-1.17-7.36-.87-10,1.27-13.68-4.65-11.82-14.84,2.18-11.9,3.91-23.82,5.48-35.8,1.75-13.44,9-19,22.8-17.79,4,.33,7.88,1.33,11.84,1.76,4.23.46,8.52,1.1,12.72.8a164.81,164.81,0,0,1,33.53.77c1,.12,2.09,1.05,2.83.77,9.32-3.5,18.76,2.36,28-.46a2.5,2.5,0,0,1,1.49-.12c8.42,3.49,17.17.7,25.61.62,13.62-.14,27.28,1.79,40.9-.3,2.85-.44,6,.4,8.89,1.14a34.54,34.54,0,0,0,13.23.7,21.09,21.09,0,0,1,17.67,6.18c1.22,1.21,1.44,3.54,1.86,5.41,1.17,5.34,2.29,10.69,3.26,16.06.44,2.4.49,4.88.71,7.32.17,2-.2,4.18.6,5.84,2.27,4.7,1.85,9.69,2.36,14.6.4,3.88-1.58,5.65-5,6.12-2.21.3-4.54-.12-6.71.3-3.05.58-6.36,1.06-8.92,2.63-5.37,3.29-6.35,8.1-3.92,14.07,3.95,9.73,7.44,19.65,11.09,29.5,1.22,3.29,2.33,6.62,3.49,9.93,2.14,6.07,4.4,12.11,6.39,18.23,2.07,6.37,3.68,12.9,5.84,19.24,4.11,12,8.89,23.8,12.56,35.94,2.74,9,8.13,17.16,8.73,27,.2,3.29,2.4,6.44,3.48,9.72,2,6.05,3.73,12.17,5.77,18.2,1.46,4.34.71,8.29-1.14,12.32-2.13,4.63-1.78,6.45,2.66,9.39,3.59,2.37,5.51,5.55,7.07,9.34,1,2.43,2.73,4.55,4,6.86a8.19,8.19,0,0,1,1.32,3.25c.67,11.53,6,21.68,9.91,32.16,2.84,7.61,9.47,12,17.43,13.9,3.64.88,6.48-1.19,6.43-5.13-.13-9-.61-17.94-1-26.9a24,24,0,0,1-.25-4.45c2.59-17.23.34-34.39-.48-51.58-.6-12.43-.81-24.88-1.33-37.32-.36-8.43-1-16.85-1.41-25.29-.38-8.7-.54-17.41-.83-26.11-.06-1.74-.21-3.47-.39-5.2-1-9.95-2.37-19.89-3-29.87-.36-5.44.78-11,.6-16.44-.47-14.18-1.31-28.35-1.93-42.53a7.6,7.6,0,0,1,.85-3.57c4.63-9.11,3.17-18.85,3.09-28.47a28.84,28.84,0,0,1,.79-7.29,19.27,19.27,0,0,0-16.45-23.93,50.67,50.67,0,0,1-5.25-.42c-6.82-1.49-11.23-8.56-8.46-14.93,4.06-9.34,5.21-19.09,6.35-29,1.3-11.32,9.06-17.07,19.46-16.24,11.82,1,23.09-1.46,34.37-5,7.59-2.38,15.73-3,23.6-4.48,8-1.54,16.25-2,24.34-3.28,9.34-1.5,18.68-3.31,28.06-4.72a21.62,21.62,0,0,0,3.63-.56c9.34-3.14,15.81-.08,18.4,9.13,1.22,4.32,1.77,8.82,2.67,13.24.85,4.19-1.52,9.14,2.9,12.51-1.65,4.93.78,9.07,2.25,13.55,1.39,4.23-2.76,9.32-7.2,10.78a67.82,67.82,0,0,0-12.28,5.19,11.18,11.18,0,0,0-4.56,5.67,65.53,65.53,0,0,0-3.66,14.49c-1.25,11.64-1.91,23.33-2.83,35-.59,7.57-1.52,14.82-8.66,19.76-2.37,1.64-3.22,5.14-.27,7.85,6.2,5.68,7,12.56,5.61,20.54-1,5.6-.54,11.46-.47,17.2C505.08,360.52,506.16,361.84,506.83,363.33Zm49.47,206,.08-.39c2.73,0,6.23,1.07,8-.22,4.15-3,8.91-2.79,13.3-4.26,1.83-.61,4-1.38,5.13-2.78,4.71-5.72,9.34-11.53,11.38-18.93,2.91-10.6,5.51-21.2,3.89-32.34-.18-1.19.44-2.47.45-3.72.11-10,.5-20,.1-29.91-.25-6.21-1.7-12.36-2.63-18.54-1.48-9.82-2.26-19.8-8.53-28.24-3.55-4.79-6-10.79-12.47-12.27-7.5-1.71-14.84-6-23-1.82a11,11,0,0,1-6.62.75c-6.82-1.22-12.22,1.2-17.09,5.63-1.47,1.34-3.37,2.3-4.59,3.83-3.56,4.41-8,8.58-10,13.66-2.34,5.9-2.84,12.63-3.52,19.06-1.7,16.06,1.06,32.15-.24,48.3a94.51,94.51,0,0,0,2,27.33c3.36,15.75,17.2,30.68,33.22,33.43C548.92,568.54,552.63,568.87,556.3,569.34ZM205.1,320.84c-1.2,2.38-2,3.56-2.41,4.88-3,11.07-7.09,22-8.57,33.29a147,147,0,0,1-5.5,25.28c-6,19-14.09,37.35-21.48,55.91-2.65,6.65-5.87,13.07-8.52,19.73-1.21,3.05-3.21,6.57-.73,8.22,7.39,0,13.08-.07,18.77,0,17.43.28,34.87.69,52.3.9,4.39.05,8.8-.48,13.65-.77-.17-5.13.38-9.13-2.49-13.47-3.5-5.28-5.79-11.51-7.84-17.59-2.46-7.29-4-14.9-6.14-22.3-4-13.67-8.42-27.22-12.08-41-2.1-7.89-4.92-16.31-4-24.08,1-8-2.29-14.44-3.24-21.62C206.55,326.16,205.88,324.09,205.1,320.84Zm249.51-70.45c-.52,5.1,2.14,6.78,5.3,7.77.66.21,1.79-1.06,3.24-2ZM647.35,513V505C643.44,508.2,643.31,510.6,647.35,513Zm-348,34.31c3.89,1.13,5.12,5.05,8.92,2.73C304.3,545.28,304.3,545.28,299.33,547.27Zm361-6.63,3.46-3.73-7.21-2C658.27,537.51,659,538.67,660.31,540.64Zm-327.16,45L332,584l-4.73,3.41C331.39,589.41,332.17,587.33,333.15,585.62ZM310,566.74c5.56.89,5.56.89,5.45-3Zm358.22-73.63,1.53.35c.26-2.35,3.58-4-.07-8.58ZM497.08,212.63l3.74,5.83C501.27,213.9,501.27,213.9,497.08,212.63ZM340.71,581.53l-.89,1.63a10.26,10.26,0,0,0,1.34,1.58c1.37,1.08,3.88.1,3.15-1S342,582.26,340.71,581.53ZM457.9,461.76l1.31.59c.67-1.4,1.35-2.8,2-4.21l-1.41-.64ZM573.94,604l4.12-3.94C572.85,598.56,572.85,598.56,573.94,604ZM429.68,589.12a8.08,8.08,0,0,0,1-2.45c0-.35-1.33-1.14-1.46-1a12.55,12.55,0,0,0-1.66,2.07Zm15.62,26.59c-3.34,2.37-3.13,3.89-.57,6.21C444.93,619.78,445.07,618.27,445.3,615.71Zm165.63-33.56.8-1.24-3.53-2.31-1,1.63ZM348.71,583.4c0,.68-.09,1.35-.14,2a28.59,28.59,0,0,0,2.93-.06,2.81,2.81,0,0,0,.2-1.17C350.72,583.88,349.71,583.65,348.71,583.4ZM481.87,289.71l1.42-1.11c-.61-.75-1.22-1.51-1.84-2.26-.33.27-1,.68-.94.79A28.87,28.87,0,0,0,481.87,289.71ZM433.46,597.94v-5.7C430.76,594.78,430.15,596.23,433.46,597.94Z"/><path class="a" d="M1476.51,518.16c3,2.55,6.85,4.57,8.72,7.77,5.3,9,14,14.65,20.85,22,1.66,1.78,5.33,2.61,3.65,6.41-.1.22.4,1,.59,1,6.22-.29,8,6.06,12.5,8.38s9.41,4.25,12.69,7.74c5.76,6.15,13.75,7.27,21,11.08,3.5-2.1,7.41-2.11,11.67-.42,2.74,1.09,5.63.67,8.54-1.11,7-4.27,15.6-5,22.14-10.49,4.33-3.6,7.9-7.26,10.68-12.55a57.26,57.26,0,0,0,6.08-18.16,62.37,62.37,0,0,0,.51-6.55c.22-4.2,2.51-6.4,6.78-6.14,6.58.39,13.16,1,19.74,1.36,1.16.07,2.34-.63,3.54-.77,4-.43,7.94-.76,11.91-1.16a26.71,26.71,0,0,0,5.16-.69c5.64-1.73,11.23-3.63,16.88-5.48,3.32,2.94,4.21,6,1.46,9.3-2.1,2.51-1.83,5.37-2.51,8.19a146.55,146.55,0,0,1-7.72,22.6,228.91,228.91,0,0,1-12.67,26.25c-3.87,6.61-9,12.56-14,18.38-3.56,4.1-8,7.42-11.92,11.21-5,4.86-10.88,7.54-17.91,7.5-1.3-2.93-2.48-6.06-6.9-4.18,2.32,3.25,2.32,3.25,7.1,4-3.14,7.26-10.26,7.29-16.4,8.71-5.48,1.26-11.19,3-16.45,3.41-10.18.78-20.16,5.76-30.7,2.18a13.72,13.72,0,0,0-7.44-.11c-6.08,1.56-11.86.1-17.74-.92-6.89-1.2-13.81-2.21-20.69-3.44a75,75,0,0,1-27.5-10.94c-6.41-4.13-13.55-7.12-20.29-10.75a7,7,0,0,0-7.61,0c-7.41,4.07-15.19,7.46-22.76,11.23-1.3.65-2.22,2.06-3.49,2.8-2.15,1.26-4.35,2.9-6.7,3.29-16,2.65-31.44,8.37-47.88,8.77-4.71.11-9.41,1.42-14.11,1.38-6.69,0-13.37-.95-20.07-1.28s-13.43-.6-20.14-.53c-10.56.11-20.36-3.5-30.42-5.81-5.92-1.36-11.32-3.38-13-10.57-1.38-5.76-9.06-9.39-16.19-6.83-5.25,1.89-8.79,1-12.86-2.53-11.4-9.84-20.31-21.38-27.88-34.45-5.78-10-7.26-21.21-12-31.36-.55-1.19.06-2.89,0-4.35-.09-2.48.1-5.05-.49-7.42-3.33-13.46-1.23-26.82.43-40.21,1.53-12.4,6.79-23.56,13.47-33.62,4.08-6.14,8.16-13.19,15.53-16.76,1.71-.83,3-2.55,4.52-3.77,2.1-1.65,4.26-3.23,6.43-4.8.38-.28,1.1-.19,1.38-.51,6.56-7.46,16.12-9.67,24.47-14,6.39-3.29,13-6.2,19.41-9.4a50.83,50.83,0,0,0,5.4-3.69c-6.06-3.92-8.44-8.78-8-15a3.16,3.16,0,0,0-1.42-2.53c-5.71-2.3-6-6.57-5.91-12.05.08-3.36-2.52-6.93-4.36-10.15a13.6,13.6,0,0,1-1.69-9.87c1.47-8.85,1.31-18,2.77-26.81a162.61,162.61,0,0,1,6.19-23.9c.58-1.75,3.87-2.78,6.08-3.78,1.47-.66,3.23-.66,5.71-1.11-5.14-6.76-.85-11.14,2.87-15.46,7.85-9.11,18.55-14.63,28.63-20.48,5.33-3.09,11.84-7,19.13-5.08,9.13-4.07,19.35,0,28.56-3.74,1-.42,2.44-.05,3.63.18,13.06,2.58,26.31,4.5,39.1,8a85.06,85.06,0,0,1,30.25,14.88c6.1,4.77,12.24,9,16.94,15.33,6.44,8.65,9.18,18.82,12.81,28.65a2.48,2.48,0,0,1,.2,1.47c-3,8.85,2.08,17.57.46,26.3-.94,5,.07,11.07-5.71,14.27a2,2,0,0,0-.88,1.18c-5.09,18.79-8.91,25.47-22.07,35.92a185.44,185.44,0,0,1-24.86,16.83c-7.9,4.4-8.26,8.1-2.6,15.42,4.55,5.87,8.28,12.38,12.55,18.48,3.37,4.8,7,9.43,10.55,14.11.44.59,1.18,1,1.59,1.59q8,11.67,15.82,23.38,6.23,9.27,12.42,18.58l-5.59.51c2.84,3.12,4.71,5.69,7.09,7.63C1475.66,521.93,1476.51,520.32,1476.51,518.16Zm168.79,21c.78,2.54,1.87,4.34,6.24,1.33l-6.41-1.16c1.78-1.9,2.19-3.58-1.69-5.58C1644.29,536.26,1644.79,537.72,1645.3,539.18Zm-263.36-84,1.69-4.83-1.49-.2c0,1.74,0,3.48,0,5.18-2.08-.58-4-.84-5,1.87C1380.15,459.23,1381,457.16,1381.94,455.17Zm61-92.26c-2.52-.94-5-1.35-6.17,1.82-.21.56.72,2.2,1.23,2.25,3,.28,4.56-1.35,4.88-4.28,4.36,2.45,4.36,2.45,5.87-1.56ZM1412.4,467.28l-4.55-1.27a9,9,0,0,0,2.11,6.1c.19.23,2.62-.64,2.92-1.42.37-1-.42-2.36-.75-3.6,1.08-.94,3.21-2.22,3-2.76-.75-2.36-2.55-2.32-4.74-.64C1411.09,464.9,1411.74,466.09,1412.4,467.28ZM1410,608.64c.51-2.85-1.79-3.77-3.89-4.76l4,4.63,4.57,5.13c1.89-3.35,3.13-5.56,5.06-9-2.81-.15-4.6-.78-5.68-.17C1412.45,605.42,1411.32,607.22,1410,608.64Zm205.55-.26c-2.76,5.22-2.76,5.22,4,9.59l-4.18-9.5c5.62-6.42,5.62-6.42.13-10.7-.29,2.24-.58,4.52-.77,6-3,.64-5.71.44-6.75,1.66s-.21,3.78-.21,6ZM1377.62,477.74c-4.82,2.08-8.5-1.95-13-3.16,1.51,9.25,1.51,9.25,4.09,11.69a52.73,52.73,0,0,0,5.86-4.29c1.22-1.16,1.89-2.91,2.77-4.41l6.1-.67-7.07-2.46c-.17.34-.35.67-.52,1Zm-31,134c-.4-2.71-.79-5.43-1.35-9.23l-9.89,4.66,6.14,4.54c-.46,2.74-1.89,6.61-1.07,7.17,4.93,3.36.12,6.09-.37,8.75l5.36,4.64,3.5-3c-1.42-2.21-2.73-3.37-2.88-4.67-.52-4.23-2.47-8.58.31-12.75.23,1.73.46,3.45.7,5.18l1.75,0c.38-1.91.75-3.81,1.14-5.77a8.31,8.31,0,0,0-2.1-.24A4.43,4.43,0,0,0,1346.64,611.69Zm-87-77.49c3.2-6.57,5.51-13.16-.32-21-.64,2.71-1.51,4.53-1.39,6.27.36,4.91,1.12,9.78,1.73,14.67,4.59-.54,3,4.44,5.39,6l5.2.65c-1.09,2.27-1.87,3.89-2.61,5.41,4.93,3.19,6.86-1,9.88-3.45-3.24-4.78.92-7.9,3.63-11.67-2.09-2-3.85-3.64-5.59-5.31.06-4.71.06-4.71-2.72-8.37-.12,3.48-1.81,6.9,2.9,8.22l-6.67,11.42C1266.37,535.31,1263.63,532.21,1259.66,534.2Zm66.11-71.71c-3.21,2.41-5.77,4.3-8.29,6.24-1.57,1.21-3.65,2.2-4.52,3.82-4.4,8.17-11.16,15.14-12.18,25.05-.6,5.85-3.8,12-2.57,17.3,1.56,6.67-.57,13.82,3.54,20.14,4,6.11,6.16,13.47,10.54,19.2,7.42,9.7,17.56,16.08,28.53,21.69,16.45,8.4,33.21,5.87,50.06,3.6,5-.67,9.66-3.68,14.63-5.08,4.09-1.15,5.78-3.46,5.69-7.58-3.76-3.71-7.18-7.74-11.24-11-6-4.7-12.94-8.15-15.88-15.94-.63-1.67-2.86-2.73-4.34-4.07-2.92-2.64-7-4.75-8.52-8-4.46-9.83-11.41-17.94-17.7-26.34-7.13-9.55-13.3-19.58-19.69-29.56C1331.64,468.56,1331,463.18,1325.77,462.49ZM1363.84,338c-3.44,2-4.27,3.44-2.51,7,4.77,9.56,9,19.44,16.46,27.43,2.26,2.41,4.78,3.46,7.28,2.33,5.85-2.67,12.16-5.12,16.89-9.25,7.79-6.8,14-15.08,12.73-26.56a7.11,7.11,0,0,1,.21-2.24c1.92-8.72-2.71-15.57-8.34-20.45-10.71-9.28-29-8.34-38.55-.78-3.35,2.64-6.43,6.84-7.41,10.87C1359.83,329.52,1362.46,333.53,1363.84,338Zm90.28,265.19-5.62-7.58c1-1.59,2.07-3.19,3-4.7l-5.26-6.3c-5.07,3.65-5.37,4-3.35,8,1.55,3.06,3.34,5.82,2.89,9.6-.14,1.17,1.83,2.59,2.86,4Zm-79.47-184.39.61-2.27L1363,408c-3.44,3.75-2.71,7.59-2,11.24.42,2.09,2.84,3,4,1.32C1367.66,416.85,1370.63,416.41,1374.65,418.83Zm52-42.48c2.73-5.22,7.86-8,4.72-14.88l-9.89,6.15ZM1621.46,592.6c-.84,5.42,2.22,10.7-.93,15.61-.32.51,1.27,2.26,2,3.43,1.32-.82,3.26-1.32,3.84-2.5,2.52-5.1-3.92-9.35-1.75-14.62.1-.26-.93-1-1.47-1.51C1623,592.86,1622.65,592.88,1621.46,592.6Zm-325.32-19.28c1.29-4.78,5.41-9.91-1.4-13.53,1.2-2.51,2.31-4.81,4.08-8.49l-7.57,7.42C1290.93,563.63,1297.59,567.15,1296.14,573.32Zm69.44-131.06c-3.24,3.85-6,7-10.74,5.58-.26-.08-1.14,2-1.73,3,5-2.41,10.14,4.27,14.5-.79C1367,447.84,1366.45,445.6,1365.58,442.26Zm-120.15,44.35c-1.66,2.68-2.73,5.26,0,6.86,1,.55,3.23-1.21,5-1.94l3.09,6C1253.91,486.94,1253.91,486.94,1245.43,486.61Zm217.63,31.52c-2.47,1.28-5.2,2.27-7.23,4.06-.48.43,1.4,3.53,2.2,5.44C1465.69,523.8,1465.69,523.8,1463.06,518.13Zm-48.45,71.93-.95.62c.15,3.08.3,6.16.44,9.19,8.87-8.68,8.87-8.68,7.19-14.91l-3.78,9.89c-.86-1.42-1.22-2-1.58-2.59ZM1319.67,589c3.3,8.48,3.3,8.48,9.43,6.3C1327.16,588,1326.31,587.37,1319.67,589Zm-.4,12.72c-1,6.86.12,8.23,6.79,9.41C1326,604.21,1326,604.21,1319.27,601.69Zm186.41-12.54-2-2c-2.12,1.3-5.07,2.13-6.13,4-1.36,2.41-.92,5.58,2.07,6.95ZM1396.41,453.67c-3.9-5.72-5.54-5.68-9-.21C1390.07,456.29,1392.93,455.7,1396.41,453.67ZM1546.82,620.2l3.7,6.92c2.37-2.84,6.28-4.38,4.14-7.73S1550,619.29,1546.82,620.2ZM1439.48,521l-7.61-5.21c-3.13,2.72-3.13,2.72-2.08,6.64Zm73.29,83.72c-2.71-3.94-6.08-4.08-10-3-.7,2.72-.91,4.92,2.72,4.5C1507.88,606,1510.19,605.29,1512.77,604.74ZM1450.37,372c-1.8,7.11-1.78,7.15,3.44,8.91C1452.8,377.69,1456.35,373.39,1450.37,372ZM1424.7,491.15c2.41-2.93,4-4.9,2.08-7.46-1.34-1.79-3.17-2-5.43-.28Zm22.15-149c-2.08,7.13-.52,9.46,5.09,8.85Zm79.74,285.07c3.09-2.14,8.41-.8,9.94-6.29C1531.75,621.35,1527.62,621.72,1526.59,627.23ZM1391,414c3.3-2.74,5.25-4.28,3.92-7.2-.84-1.86-1.16-4.74-4.88-3.08C1390.28,406.54,1390.56,409.46,1391,414Zm-85.22,213.46,9.12,2.87,1.12-5.92C1312.55,627.58,1309.13,622.55,1305.76,627.46ZM1445.2,382.85c-7.77-.74-9.65.46-9.17,4.92Zm-82.15,108.92c.56,3.49.84,5.25,1.2,7.47l5.15-2.42Zm-61.36,104.07-2-.21c-.17,2.27-.34,4.54-.63,8.29C1303.2,600.67,1303.49,598.42,1301.69,595.84Zm102.07-198.75c-4.91,5.53-4.91,5.53-3.08,8.39C1404.38,403.77,1404,400.69,1403.76,397.09ZM1320.88,416c.07-.61.15-1.22.23-1.84-1.35-.44-3.62-1.56-3.87-1.21-1.08,1.49-1.57,3.42-2.91,6.78Zm106.67,60.58c2-2.12,4.74-3.49,2.21-6.83C1426.78,471.08,1424.55,472.39,1427.55,476.59Zm7.36,119.4,1.94-.6c-.61-3,.86-6.75-3.94-9.18C1433.66,589.9,1434.29,592.94,1434.91,596ZM1258,587.61l-3.74,8.95C1259.7,593.46,1259.7,593.46,1258,587.61Zm253,35.49c-3.17,4.6-.06,5.12,2.57,5.75.37.09,1-.83,1.85-1.61Zm-204.26-46.75-3-6.71C1300.86,573.78,1300.86,573.78,1306.76,576.35Zm46.13-171.6-1.76,1c.66,1.23,1,2.83,2.07,3.57.67.49,2.24-.24,4.63-.62Zm-73.18,83.77c.86-1.77,1.79-2.78,1.63-3.59s-1.32-1.61-2-2.4c-.64.87-1.74,1.72-1.77,2.62S1278.57,486.87,1279.71,488.52Zm362.53,79.27c-3.76,4.06-3.76,4.06-2,7.16.38-.29,1-.53,1.09-.87C1641.74,572,1642,569.89,1642.24,567.79Zm-420.61-32.9.68,7C1226.12,539.79,1226.12,539.79,1221.63,534.89Zm37.32.91c1.1,3.8,1.88,6.46,2.66,9.12l1.87-.62C1262.13,541.82,1262.9,538.62,1259,535.8Zm208.62,2.1-2.21-7.78C1464.24,532.91,1463.14,535.7,1467.57,537.9Zm-117.2-55.25,4.52,4.53C1357.25,482,1357.25,482,1350.37,482.65ZM1375,624.18l3.2-6c-1.5-.81-2.64-1.43-5-2.7C1373.85,618.82,1374.26,620.81,1375,624.18Zm-70.1-30.78c4.61,1.81,4.61,1.81,5.83-2.4Zm29.81-3.28c5,2.79,5,2.79,7.2.54C1338.6,589.24,1338.6,589.24,1334.68,590.12Zm123.07-3.39c-.33,5.89-.33,5.89,4.38,4.58Zm7.93-21.61c-2.86,4.87-2.76,5.2,1.46,8.19C1466.7,570.84,1466.33,568.78,1465.68,565.12Zm193.77-31.6-3.78,4.72C1659.85,538.28,1659.85,538.28,1659.45,533.52Zm-385.93-61.39c-1.83-1-2.9-1.8-4.09-2-.49-.09-1.23,1.16-1.85,1.8a14.86,14.86,0,0,0,3.22,2.18C1271.23,474.25,1272.14,473.17,1273.52,472.13Zm135.59-27c-3.09-3.26-4.94-3.69-7.55-1.71ZM1291.27,341.73c-2.25,5.65-2.25,5.65,2.65,5.47C1293.05,345.41,1292.29,343.82,1291.27,341.73Zm-38.09,226.39-2,.27c.24,1.61.47,3.21.71,4.82l2.46-.54Zm393.48-3.07,2.49,6.13C1650.47,568.26,1650.88,565.71,1646.66,565.05ZM1405.78,380.89c.24,2.31.36,3.44.56,5.39l5.4-3.5Zm-26,22.08,4.9,2.88c-.27-2.42-.42-3.8-.65-5.87Zm41.79,145.5,1.65.59c.36-1.72.81-3.42,1-5.15,0-.34-1-.79-1.62-1.25C1422.18,544.8,1421.85,546.63,1421.53,548.47Zm176.9,71.61-.83,2.51c1.51.52,3,1.06,4.56,1.47a6,6,0,0,0,.67-1.68C1601.41,621.53,1599.91,620.82,1598.43,620.08Zm-202.9-153.73,5.26,2.72v-5.74Zm158.53,139.07c-.79,1.28-1.51,2-1.7,2.86a26.84,26.84,0,0,0-.06,4.64,49.28,49.28,0,0,0,2.4-4.95C1554.88,607.45,1554.41,606.7,1554.06,605.42ZM1442.15,306.85l1.49.06c.06-1.37.13-2.75.19-4.12l-1.49-.06Zm-139,243c-.32,2.3-.54,4-.85,6.23C1305.79,553.86,1305.79,553.86,1303.2,549.89Zm65.88-57.54,1.94,1.75c.77-1.2,1.55-2.39,2.26-3.62,0,0-1-.83-1.09-.74C1371.1,490.54,1370.1,491.47,1369.08,492.35Zm37.67,37.47c-.41,1.7-1,2.77-.7,3.2a10.09,10.09,0,0,0,2.57,1.92c.37-.74,1.2-1.7,1-2.17C1409.18,531.85,1408.17,531.21,1406.75,529.82Zm22.5-39.17c3.8-1.08,3.8-1.08,1.48-4.35ZM1294.43,469c-.07-.69-.15-1.39-.23-2.08l-4,.81c.08.49.16,1,.23,1.47Zm140.38,64.84-1.15,5.42C1437.08,538.32,1438.6,537,1434.81,533.85Zm-12-62c-1.68-.81-2.67-1.57-3.7-1.66-.49,0-1.09,1.21-1.64,1.87a10.92,10.92,0,0,0,2.88,1.73C1420.86,473.93,1421.63,472.87,1422.84,471.88Zm96,124.06c.29-.56.57-1.12.85-1.68l-3.23-2.33c-.26.86-1,2.22-.7,2.49A10.93,10.93,0,0,0,1518.83,595.94ZM1259,483.21l-1.42-.29c-.3,1.33-.61,2.66-.92,4l1.57.33C1258.52,485.9,1258.78,484.55,1259,483.21Zm101.32,115.63c-.24,2.41-.37,3.75-.53,5.45C1364.06,602.22,1364.06,602.22,1360.36,598.84ZM1391,628.78l1.92.11v-4l-1.23-.12Zm33.92-35.37v6.25C1428.54,597.92,1428.28,596.25,1424.93,593.41ZM1320.68,325.84c-1.78,3-1.78,3,1.45,4.53C1321.58,328.64,1321.19,327.43,1320.68,325.84Zm-45.73,189c-1-3.51-1.85-5.67-5.26-3.19Zm164.93-3.23-.79-1.22-2.86,1.94c.27.34.71,1,.78,1C1438,512.75,1438.93,512.14,1439.88,511.56Zm-13.15-1,1.67.93,2.38-5.2-1.34-.67Zm-107.68-70.73,1.31-.07-.27-4.57-1.29.06Zm69.4-49.55c-.86,1.58-1.38,2.54-2,3.59l4.23,1.33C1389.89,393.4,1389.33,392.19,1388.45,390.29Zm37.62,166.13-1.73-4.82C1421.2,555.27,1421.2,555.27,1426.07,556.42Zm-63,60.3.69.76,2.32-1.67-1.2-1.41C1364.3,615.18,1363.69,616,1363.09,616.72Zm26.93-4.79a11.32,11.32,0,0,0-1.19,2.66c-.06.4.67.92,1,1.39a18.9,18.9,0,0,0,1.87-2.45C1391.81,613.4,1390.86,612.69,1390,611.93Zm-11.21,3.51,1.12-1.63c-1.07-.62-2.14-1.24-3.24-1.79,0,0-.7,1-.62,1.09C1376.93,613.94,1377.88,614.68,1378.81,615.44ZM1461,332.19l-1.15-1.29-2.31,2.58.87.87Zm-88.63,256.06c-.44-.5-.89-1-1.34-1.49l-2.41,2.75.76.88ZM1266.85,452.64l-1-.64-1.81,2.31,1.51,1.06Zm31.81,4.92,1.34.15c.15-1.18.29-2.35.44-3.52a5.44,5.44,0,0,0-1.38,0C1298.85,455.32,1298.77,456.44,1298.66,457.56Zm70.9,154.9.48-2-4.59-.7c-.08.42-.15.85-.23,1.27ZM1273,459.32l1.77-.16a32.5,32.5,0,0,0-.68-3.29c0-.15-.84-.08-1.29-.11ZM1347,396.9l1-1.85-3.53-1.83-.86,1.48Zm87.62-.88-2.51-2.34a10.93,10.93,0,0,0-1.67,2c-.11.21.67,1.28,1,1.28A13,13,0,0,0,1434.6,396Zm155,228.92,1.26-.41c-.31-1-.62-1.93-.92-2.89-.44.16-1.27.42-1.26.45C1588.9,623.05,1589.25,624,1589.57,624.94ZM1334.79,344.3l.42,1.77c1.15-.48,2.31-.92,3.41-1.49.11-.05-.16-.85-.26-1.3Zm-47.29,92.41-.66-1.49a10.2,10.2,0,0,0-1.62,1.09c-.1.1.39,1.08.49,1.06A10.47,10.47,0,0,0,1287.5,436.71ZM1613,560.65l-1.26,1.7,3.38,2.29,1-1.35ZM1447,523.5l1.87-.41-1.2-3.68-1.14.26C1446.63,521,1446.79,522.22,1447,523.5Zm-33-.57-1.15.32.65,3.08,1.86-.85C1414.81,524.63,1414.36,523.78,1413.9,522.93Zm-138.09,33.34-1.13.71,1.61,3.16,1.64-1.13ZM1403,592.47l.74-1.86-4-1.26c-.13.46-.46,1.27-.37,1.32C1400.58,591.34,1401.81,591.89,1403,592.47Zm-64.36-127.74a23,23,0,0,0-2.81-2c-.1,0-1.09,1.07-1,1.35a3.66,3.66,0,0,0,1.6,1.82C1336.81,466.12,1337.6,465.36,1338.66,464.73Zm-25.81-132-.95.45c.4,1.07.81,2.13,1.22,3.2l1.21-.5C1313.84,334.85,1313.35,333.8,1312.85,332.75Zm43.59,142.68-.26-1-3.89.76c.14.47.27.93.4,1.4Zm119,123-1.38-.18a9.44,9.44,0,0,0-.44,2.58c.07.65.67,1.25,1.82,3.19Zm-224-10.39-.91.91,2.63,2.79,1.21-1.49Z"/><path class="a" d="M1976.55,618.76c-1.85,4.11-3.33,7.14-4.59,10.25s-3.48,4-6.53,4.07c-15.19.24-30.39.61-45.58.75-2.7,0-5.41-.78-8.1-1.29-1.22-.23-2.49-1.18-3.59-1-7,1.32-13.25-1.44-19.7-3.11-4.8-1.25-9.51-2.87-14.25-4.37-.7-.22-1.32-.87-2-1-17.12-2.12-32.11-10-46.89-18-5.57-3-9.73-8.54-15-12.26-9.12-6.41-15.55-15-22.3-23.68-8-10.32-12.34-22.05-17.5-33.58a41,41,0,0,0-4.68-8.47c-4.24-5.47-3.93-12.08-5.23-18.29-.66-3.16-.72-6.79-2.39-9.32-5-7.56-2.83-16-3.68-24-1.19-11.1-2.21-22.4-1.43-33.48.68-9.65-2-19.46,1.33-28.95a5.07,5.07,0,0,0,0-2.23c-1.9-16,2.88-31.21,5.72-46.61,3.3-17.92,10.63-34.33,20.93-49.32,2.91-4.25,6.76-7.85,10.13-11.79s6.57-8.08,10.1-11.89a52.09,52.09,0,0,1,6.37-5.12,15.65,15.65,0,0,0,2.44-1.72c7.44-8.57,11.31-11.51,20.94-16,1.57-.74,2.81-2.11,4.32-3,2.34-1.36,4.79-2.52,7.16-3.81,4.52-2.47,9-5.08,13.56-7.43,3.12-1.61,5.43-6.11,10-3.06,8.67-1.93,18.05-.64,26-6,4.87-3.26,10.28-3.6,15.91-2.49a18.62,18.62,0,0,0,5.08.5c9.21-.68,18.39-1.93,27.6-2.13,6.43-.14,12.89,1.13,19.34,1.67,6.18.53,12.38.77,18.53,1.44a122.8,122.8,0,0,1,14.67,2.37c7,1.63,13.93,3.54,20.82,5.59,8.6,2.56,17.13,5.38,25.68,8.09,2.14.67,4.93.74,6.28,2.17,4.37,4.62,10.22,6.47,15.75,8.34,7.84,2.65,13.51,8.35,20.27,12.47,3.18,1.94,3.71,5.47,2.73,8.69-3.48,11.43-7.56,22.68-10.87,34.16-3.36,11.71-6,23.63-9.17,35.39-.82,3-2,6.54-4.18,8.41-3.72,3.14-8.4,5.14-12.69,7.59-.42.24-1.08.52-1.43.35-5.7-2.76-11.72,1-17.67-1.15-4.54-1.66-8.55-3.72-10.33-8a191.75,191.75,0,0,1-7.14-21.23c-.55-1.9.51-4.27.89-6.85a23.25,23.25,0,0,1-16.92-6.16,6,6,0,0,0-1.86-1.24q-14.64-5.28-29.31-10.5c-7.24,1.9-14.35-2.76-21.88,0-3.3,1.2-8.69-2.16-11.31-.53a24.81,24.81,0,0,1-11.1,3.76c-9.14.81-15.65,6-23.12,10.56-10.43,6.38-16.14,15.66-20.48,25.79-5.06,11.81-10,23.95-9.13,37.47a46.7,46.7,0,0,1-1.57,14.63c-3,11.63-2,23.52-1.33,35.05.89,14.84,2.25,29.76,5.33,44.5a108.16,108.16,0,0,0,13.6,33.58c5.38,9,13.72,15.6,23.23,20.43,2.21,1.12,4.09,2.89,6.32,3.94a63.21,63.21,0,0,0,8.18,2.94c1.63.52,3.36.7,5,1.12,1.21.31,2.37,1.1,3.57,1.13,14.62.27,29.33,4.34,43.81-1.22,5.32-2,11.32-2.87,16-5.82,9-5.58,18.32-11.11,22.16-22.11,2.13-6.09,4.93-11.95,7.22-18,1.78-4.72,10.84-10.15,15.73-9.18,1.92.38,4,.32,5.77,1a25.3,25.3,0,0,0,14.57.8,4.66,4.66,0,0,1,5.65,5.28c-1.51,10.43,3.36,19.52,5.56,29.18,2,9,3.87,18,5.81,27,.31,1.46.64,2.93,1.09,4.35,2,6.37,4.14,12.68,6,19.08,1.22,4.12-1.49,8.79-6.19,11.59-4.28,2.55-8.32,5.57-12.78,7.76-6.22,3.05-12.93,5.13-19.06,8.33a119.47,119.47,0,0,1-26.58,9.93c-7,1.75-14,3.26-21.12,4.42a10.32,10.32,0,0,1-10.56-4.13C1981,623.09,1979,621.34,1976.55,618.76ZM1779.07,477.47c-4-1.54-7.61-3.1-11.35-4.22-1-.31-2.43.74-3.66,1.17a23.32,23.32,0,0,0,2,3.51c.3.35,1.41.24,2.07.06,3.74-1,3.39,1.94,3.58,3.9.1,1.08-1.45,2.45-1.17,3.35.42,1.4,1.54,3.16,2.78,3.61,2,.72,2.16-1.12,2.17-2.71a6.42,6.42,0,0,1,.73-2l1.26.67c.33,1.48.65,3,1.17,5.37l6.17-6.79C1776.77,484.64,1781.44,479.16,1779.07,477.47Zm46.25,38.42c-.73-1.1-1.28-2.57-1.75-2.55-6.07.31-7.68-3.31-8.24-8.47-.34-3.19-2.4-5.25-7-5.46,1.88,3.5,3.21,6.66,5.12,9.41,2.87,4.12-.92,7.3-.72,10.16l-5.81,3.43c1.26,3.37,2.69,3.13,4.74,1.58C1815.78,520.87,1819.23,516.61,1825.32,515.89Zm199.11,80.37c3.34-5.6-2-8.75-3.69-13,2.42-1,4.48-2.23,1.6-5.69-1.5,1.73-3.33,3.23-4.3,5.16-.63,1.25-.48,4.26.16,4.54C2022.26,589,2022.24,593.09,2024.43,596.26Zm10.29-4.43c-.34,6.62-.34,6.62,5.51,10.07C2041.08,594.66,2040.85,594.25,2034.72,591.83Zm-84.87,30.47h9.5c.18-1.89.34-3.48.5-5.19C1950.43,618.29,1950.43,618.29,1949.85,622.3ZM1798.27,405.69c.52,4,1,7.64,1.63,12.76,3.43-4.28.09-9.27,4.52-11.17-.66-.95-1.23-2.6-2-2.7C1801.13,404.42,1799.73,405.25,1798.27,405.69Zm99.8,165,7.86-3c-1.34-2.3-2.33-4-3.41-5.88C1898.61,564,1897.35,566.47,1898.07,570.67Zm-107-229c-2,5.83-1.15,9.55,1.15,9.58l5.54-4.74Zm206.77,266.61c2.74-6.42,2.4-7.36-4.18-11.87C1995.25,600.91,1996.35,604,1997.85,608.31Zm9.69-53.14c-2,5.42-2,5.42,4.47,7ZM1907.64,590a10.58,10.58,0,0,0,3.5-9C1904.74,585.37,1904.69,585.49,1907.64,590Zm-94.53-39.65,5.75,3.94,1.84-4.48C1818.15,548.24,1816.08,546.77,1813.11,550.39ZM1795,500.81l-9-1.44C1786.93,503.25,1786.93,503.25,1795,500.81Zm0,8.37c1.72,5.06,3.1,5.26,7.53,1.54ZM2052,583.94c4.51,4.4,4.51,4.4,7.58,0ZM1973.34,588c2.18,2.79,4,3.67,6.7,2.66C1977.77,587.22,1977.77,587.22,1973.34,588ZM1802.82,551.1c.21.53.43,1,.64,1.57,1.91-.86,3.82-1.72,5.68-2.66,0,0-.31-1.46-.77-1.71C1805.16,546.57,1804.36,549.57,1802.82,551.1Zm71.24-210.45c1.23-3.77-.36-6-3.84-7.28C1868.2,337.73,1873.24,338,1874.06,340.65Zm94.82,277.74c2.72-2.12,3.27-3.92,1.37-5.62-.57-.51-2.09,0-3.54.12Zm-128.2-39c-3,2.71-1.48,4.69.19,7.54a36.77,36.77,0,0,0,1.11-4.66C1842,581.69,1841.43,581,1840.68,579.42Zm208.59-14.25c3.24-3.09,3.47-4.82-.45-7.78C2049,560.52,2049.1,562.23,2049.27,565.17Zm-31.11-5.71c.63,2.56,1.11,4.55,1.72,7C2021.54,563.58,2024.31,561,2018.16,559.46Zm-53.63-241.71-1.08-1.7-3.37,2.38a12.07,12.07,0,0,0,1.11,1.5C1962.35,319.28,1963.43,318.5,1964.53,317.75Zm-130.07,76.51c2.43-2.4,3-4.35-1-5.5C1833.85,391,1834.15,392.63,1834.46,394.26ZM1869.94,597l1.7,1.1a9.58,9.58,0,0,0,.81-2.7,6.39,6.39,0,0,0-1-2.26c-.71.49-1.74.85-2,1.52S1869.75,596.22,1869.94,597Zm18.56,3.25,2,.3v-4.2l-1-.15ZM1870,537.71c0-.39,0-.78,0-1.17l-4.45-.23c0,.47,0,.94,0,1.4Zm-66.13-18.82-1.79.74,1.77,3.57c.4-.22,1.19-.52,1.16-.63C1804.7,521.33,1804.27,520.11,1803.87,518.89Zm24.21-35.32-4.22-3.27C1823.43,484,1824.33,485.15,1828.08,483.57Zm141.6,86.5c-.5,4.5.06,5.93,4.32,3.74Zm-96.51,15.33c3.89-1.62,3.91-1.63,2.95-4.53-.08-.24-.72-.29-1.25-.48Zm176-10.69,1.52-2c-1.19-.61-2.37-1.27-3.6-1.79-.12,0-.87,1-.83,1C2047.22,572.89,2048.22,573.79,2049.2,574.71Zm-73.34,5.3,1.74-.13-.75-3.74-1,.13ZM1816.24,355l2-2c-1.1-.37-2.19-.81-3.32-1.07-.28-.06-.69.49-1,.76Zm-35.41,57.71-1.52-1.11-2.5,3.56,1.35.95Zm62,19.53,1.2,1.22,2.29-2.41c-.53-.4-1.45-1.22-1.54-1.14A20,20,0,0,0,1842.84,432.25Zm207,97.84c.52-.74,1.25-1.34,1.15-1.72a2.06,2.06,0,0,0-1.46-1.08c-.31,0-1.14.81-1.07,1.07C2048.62,528.92,2049.21,529.35,2049.84,530.09Zm-242.42-63.6.77-1.48c-1-.49-1.89-1-2.88-1.42-.09,0-.5.74-.77,1.14Zm56.68,142.86,1.47-.68q-1-2.07-2-4.14l-1.32.63Q1863.15,607.24,1864.1,609.35Zm-40.58-112.27c-.75-.45-1.3-1.06-1.79-1s-1,.71-1.57,1.1l2,1.61Z"/><path class="a" d="M2328.52,604.14c-2.07,6.26-6.34,9.34-13.34,8.91-.59,4.8-4.33,6.44-8.28,7.38-3.75.88-6.67,3.05-9.94,4.72-4.71,2.4-10.26,3.14-15.32,4.56l-4.37-6.83-1.55.52c-.26,2.1-.51,4.21-.84,6.9-2.57,1.05-5.44,2.82-8.53,3.33-4.84.81-9.81.79-14.73,1.11-3.42.22-6.85.59-10.27.62-9.63.1-19.28.23-28.91,0-5.06-.13-5.05-.46-6.59-5.11-.18,0-.43,0-.51,0-4.68,5.54-10.45,5.81-16.73,3.46-6.53-2.44-12.75-5.81-20.13-5.29-2.09.15-4.44-.83-6.41-1.83-11.29-5.74-22.71-11.3-33.65-17.67-4.59-2.66-8.5-6.82-12.07-10.87-5.26-6-11.51-11.79-14.55-18.87-6.54-15.19-13.63-30.17-17.62-46.52-5-20.43-7-41.15-7.74-61.9-.51-14.31,3.1-28.58,6.65-42.63,2.87-11.38,8.68-21.21,14.79-30.94,2.36-3.75,5.44-7,8.2-10.54.31-.4.9-.71,1-1.13,1.23-6.92,7.42-9.29,12.11-12.85,8-6.1,16.15-12.21,24.79-17.38,5.18-3.1,11.34-4.7,17.22-6.44,5.06-1.5,6.42-.6,9.15,3.76.86,1.37,1.91,2.62,3,4.11,3.36-2.28,2.74-5.22,2.53-7.81-.29-3.65,1.15-5.89,4.63-6.59,3.88-.77,7.81-1.35,11.74-1.81,5.2-.61,10.55-.46,15.62-1.62,11.56-2.66,23-3.89,34.39.42.46.17,1.17.52,1.4.34,5.9-4.86,11.8.68,17.83.25,5.61-.39,11.45,2.84,17.22,4.36,4.36,1.14,8.73,2.25,13.15,3.1a29.29,29.29,0,0,1,12.8,5.57c4,3.08,9.35,4.57,14.19,6.54,6.11,2.49,11.22,5.72,15.32,11.37,5.33,7.34,12.39,13.39,18,20.53,3.47,4.38,5.73,9.73,8.49,14.67.47.84.63,1.84,1.07,2.7a117.22,117.22,0,0,1,12.61,48.82c.36,8.95,1.82,17.85,2.76,26.78.15,1.47.21,3,.34,4.82l-4.23.49c.05.54-.07,1.14.17,1.47,4.83,6.57,2.75,13.85,2.14,21-.11,1.22-.8,2.44-.73,3.63.92,14.46-4.42,27.52-9.77,40.34-5.48,13.12-12.23,25.74-22.25,36.21-1,1.08-2.32,2.26-2.64,3.6-1.52,6.34-6.15,8-11.79,8.39q-.81-2.82-1.61-5.63C2324.93,601.63,2326.83,602.83,2328.52,604.14Zm-180-89.67,2.59-4.91c-4.79,1.53-2.43,3.54-2.38,5.12-2.76,4-2.57,4.65,2,6.45-.43,1.06-.9,2.11-1.27,3.19a11.85,11.85,0,0,0-.31,2l5.29-.83-3.89-4.2Zm-15.84-76.21-3.08,1.55c.49.75,1,2.17,1.47,2.15,2.31-.12,2.8,1.17,3.34,3,.44,1.51,1.57,2.83,2.75,4.83,1.49-3.45,2.62-6,3.79-8.75l-8.5-3c2.74-1.63,2.74-1.63-1.33-4.31C2131.76,435.58,2132.23,436.92,2132.69,438.26ZM2275,466.7l.84-.29c-1.52-5.66-4-11.26-4.38-17-.74-10-4.15-19-8.93-27.38-4-7.06-10.85-12.65-18.69-14-7.28-1.21-14.66-3.55-22.77-1.19-6.56,1.9-13.18,3.65-18.43,7.66-4.4,3.36-10.08,5.17-12.94,10.89-5.71,11.45-8.36,23.52-9.09,36.12-.12,2.19.82,4.43.71,6.63-.27,5.5-1.47,10.71-.42,16.55,1.47,8.23.53,16.91.53,25.39,0,14.65,1.84,29,9.78,41.63,5.79,9.21,11.89,18.92,25.43,17a5.65,5.65,0,0,1,2.92.55c6.79,3,13.76,2.29,20.62.75,13.49-3,23.88-10.13,28.4-23.84,4-12.29,7-24.77,6.29-37.9-.16-2.92.63-5.89,1-8.84.25-2,.87-3.95.78-5.9C2276.21,484.65,2275.57,475.68,2275,466.7Zm62.72-63,.13-1.89c-3.32-.65-6.72-1.06-10-2-4.82-1.42-8.29-.27-11.77,3.52-1.71,1.86-5.37,1.93-8.75,3,.62,1.18,1,3.34,2.2,3.87a15.4,15.4,0,0,0,7.65,1.54c1.7-.2,3.51-2.69,5.13-.6.87,1.12.32,3.34.4,4.86,3.75.29,8,2.65,10.1-2.61.27-3.5-7.91-4.59-2.36-9.68Zm-190.72,49-2.64,10.92c7.23-2,11.71,2.45,17.93,4.52-.8-2.53-1.37-4.06-1.76-5.63-.35-1.39-1.21-3.46-.61-4.14,3.42-3.87,0-6.5-.94-10.79C2155.58,451.6,2155,459.26,2147,452.72Zm147.76,138.57c.91-2.28,1.68-4.22,2.45-6.17-2.47-3.71-5.9-7.24-7.3-11.45-1.27-3.82-3.16-4.12-6.17-4-.54,4.44-4,8.44-1.09,13.26C2289.58,581.23,2289.53,589.61,2294.76,591.29Zm-75.35,22c-.57-4.7,2.74-9.59-1.62-13.76a51.56,51.56,0,0,1-5.12,2.07c-1.64.47-4.14-1-4.57,2.13,9.31,3.76,9.27,3.76,8.64,14.12a53,53,0,0,0,.38,6c5.22-1.82,8.47-4.48,11.42-9.65Zm91.07-16.45-4.57-8.39c-1.32,5.41-4.34,5.67-8.17,5.32-3.58-.33-6.63,2.76-7.66,6.29l10.24,1.62C2302.24,597.54,2306.93,599.21,2310.48,596.82ZM2157.21,470.77l-1.78-.45c-1.21,2.82-2.56,5.59-3.58,8.47-1.67,4.72-1.49,4.88,4.77,7.17l4.25-8.37Zm25.46,112.83c-4.91-.21-5.94,3.37-8,7.07,6.87,1.44,7.77,6.09,6.12,12.63l4.45-3.11C2189.27,593.08,2180.45,590,2182.67,583.6Zm115.84-2.43c5.24-2.65,10-5.7,13.68.45l9.88-4.25c-2.77-1.42-4.32-2.87-5.9-2.9a130.72,130.72,0,0,0-14.12.67C2299.27,575.38,2297.38,576.72,2298.51,581.17Zm-145.46-41.84c-5.85,1.32-4.93,6.58-7.77,10.24l6.63,1.59C2154.5,546.23,2154.61,545.13,2153.05,539.33Zm177.76-148.25-5.46,3.87c6.92,3.63,13.47,1.47,19.81,2.09-2.08-1.41-4.86-3.38-6.45-2.67C2334.65,396.17,2332.71,394.27,2330.81,391.08ZM2225.72,594.74c-.08-.86-.16-1.71-.25-2.57l-12.39,1.33v4c1.23-.28,2.45-.54,3.68-.83,1.48-.35,2.94-.74,4.42-1.06S2224.21,595,2225.72,594.74Zm121.56-157.63c.16,0-.33-.13-.44,0-2.6,3.5-3.11,7.42-2.52,12.44,2.27-1.72,4-3,5.54-4.17C2348.93,442.42,2348.14,439.88,2347.28,437.11Zm-167.74,132c-2.53,4.36-5.48,7.47-2.7,12.07C2182.5,577.58,2182.69,576.87,2179.54,569.07Zm118,48c.58-3.15,1.15-6.3,1.77-9.7C2292.05,608.74,2291.82,609.56,2297.58,617.08Zm-13.13-12.64c1-1.76,2.1-2.84,2-3.83-.3-3.87-2.16-6.65-7-7.94C2281.22,596.82,2282.61,600.09,2284.45,604.44Zm57.71-131.85c-.4,4.59,2.54,6.56,5.34,10V471.48ZM2238.57,590.82c4.77-8.16,4.72-9.53,0-12.41ZM2187.38,565l7,5.35c-.25-4.49-.39-7.07-.54-9.65l-2-.82Zm15.87,58.1.87.81,7.79-3.76c-.71-1.69-1.33-3.18-2.56-6.1ZM2324.94,513.3c2-2.19,3.79-3.3,4.06-4.71s-.67-3.28-3.24-2.46c-1,.33-2.36-.39-4.49-.82C2322.53,508.06,2323.32,509.79,2324.94,513.3Zm-151,85.11-5.12-3.68c.78,4.16-3.69,6.82-.08,10.1Zm22.68,9.1c.95,5.73,2.09,7.57,5.25,7.93,1.8.2,3.69-.15,3-2.48Zm-77.53-39.75c.48,5.76,1.84,7.88,4.48,6.83l2.05-4.88Zm234.46-83.83-1.76.48c.23,8.54.23,8.54,6.1,11,2.24-4.23-3.54-2.17-3.62-4.65C2354.16,488.45,2353.77,486.19,2353.52,483.93ZM2308.8,564.8c3.73,4.15,3.73,4.15,9.75.62C2315.51,564.41,2312.68,561.58,2308.8,564.8Zm-139.15-59.3c.67-4.48-1.74-7-4.35-9.48C2165.38,499.63,2164.35,503.76,2169.65,505.5ZM2096,510.42l-7.54,3.55,8.37,2.66C2096.46,514.11,2096.3,512.9,2096,510.42Zm93,106.68,4.64,3.12a35.64,35.64,0,0,0,2.2-4.07c.16-.41-.52-1.16-1-2.11Zm118.4-224.29c3.18-3.72,2.48-6.5.25-9.75C2304.74,386.37,2305.87,389.15,2307.32,392.81Zm-209.41,100.1c-4.63,2.39-4.82,4.38-3.09,6.44.51.62,2,.39,3.09.55Zm121.23,90c-4.45,1.47-4.35,3.78-2.22,6.15.61.69,2.46.27,4,.38C2220.3,587.09,2219.81,585.28,2219.14,582.87ZM2214,383l7.8-1.24.06-1.52-5.66-2.94Zm116.94,201.49c-1.21-1.15-2-2.42-2.73-2.44s-1.78,1.08-2.67,1.7a16.62,16.62,0,0,0,2.63,3C2328.38,586.81,2329.71,585.44,2330.94,584.44Zm28.38-131.23L2351,454C2354.78,458.11,2355.8,458,2359.32,453.21Zm-114.47-53-1-7.26-1.69.21C2242.05,395.37,2239,397.84,2244.85,400.2ZM2320.76,556l2.82-5.33-4.21-2Zm-179.35,2.92c-3,2.21-2,4,.18,6.27C2143.63,562.75,2144.59,560.85,2141.41,558.89Zm207.53-156.28-2,.08c.14,1.83.27,3.65.41,5.47l1.55-.11Zm-175.19,34.75c1.31-3.49,1.31-3.49-1.57-4.93C2172.75,434.23,2173.25,435.79,2173.75,437.36Zm-73,1.17c-3.21-.77-4.18.27-3.84,2.39.16,1,1,1.94,2.06,3.87C2099.73,442.16,2100.18,440.61,2100.77,438.53Zm-10.83,10.87c1.08-1.55,2.15-2.42,2.17-3.3s-1.09-1.67-1.71-2.51c-.81.76-2.08,1.41-2.29,2.3S2089,447.69,2089.94,449.4Zm63.15-86.76c1,2.14,2,4.29,5.34,3.31C2157.55,363,2156.14,361.6,2153.09,362.64Zm156,184.81-.81,1.69,3.76,1.55c.34-1,.67-2,1.1-3.24Zm-190.7,15.29c1.21.9,2.07,2,2.54,1.81a3,3,0,0,0,1.74-2c.08-.7-.82-1.51-1.28-2.27Zm88.28,34.17,1.84,0c.92-2,1.33-3.87-1.84-5.91Zm17.58,32.78,1.14.18q.43-2.77.88-5.53l-1-.16Zm-26.93-42.27c-.42,1.58-.84,3.16-1.47,5.55C2199.82,591.44,2198.84,589.5,2197.35,587.42Zm-21.42-54.27a8,8,0,0,0-2.24-1.43c-.3-.06-1.3,1.13-1.18,1.47a7.39,7.39,0,0,0,1.61,2Zm-49,4.09c1.07-1.68,3.93-3.24,0-5.83Zm220.89-45.33c-.38-.58-.77-1.15-1.15-1.72l-3.35,2.77.71,1.05ZM2116.3,481.78l-1.57-1.08c-.65,1.21-1.33,2.4-1.9,3.64,0,.09.64.52,1,.79C2114.65,484,2115.47,482.9,2116.3,481.78ZM2150,473.5l1.76-.12c-.1-1.71-.2-3.41-.29-5.12l-1.7.09C2149.89,470.07,2150,471.78,2150,473.5ZM2139.27,463l1.17-.17c-.25-1.59-.49-3.18-.74-4.77l-.43.08Zm-4.83,106.37c-2.4-.77-3.31-1.38-4-1.18-.83.25-1.44,1.17-2.15,1.8l.6,1ZM2166,543.45l-1.62.53,1.71,5.24,1.66-.54C2167.19,546.93,2166.6,545.19,2166,543.45Zm-42,42.14,1-.59-1.51-3.32-1.68.85ZM2139,402.77l1.06-.15v-3.86l-1.06,0Zm204.5-.86-1.18-.36-1.39,3.25,1.91.62Zm-73.69,13.53-1.64-.38c-.33,1.05-.7,2.09-.94,3.16,0,.11.77.4,1.18.61C2268.83,417.7,2269.3,416.57,2269.76,415.44ZM2162.48,577.17c-3.65,1-3.65,1-1.13,3.54Zm174.8-67.8-1.48-.51-1.31,3.87,1.45.49C2336.38,511.94,2336.83,510.66,2337.28,509.37Zm-15.6,3.22-1.14.08.54,3.61.6-.08Zm-140.9,100.34c2.35-1.65,3.59-2.7.95-5.39C2181.36,609.64,2181.14,610.9,2180.78,612.93Zm-83.61-147.8-.94-.07c-.18,1.23-.37,2.46-.55,3.69l1.16.14Zm50.67,3.25-1.58-1.85a15.14,15.14,0,0,0-1.91,1.75c-.07.08.73,1.26,1,1.22A9.89,9.89,0,0,0,2147.84,468.38Zm51.28,106.1,2-.2-1-3.57-1.32.3C2198.89,572.17,2199,573.32,2199.12,574.48Zm-37.23,29,.45-.93-4.18-2.61c.88,1.68,1,2.41,1.48,2.71A9.15,9.15,0,0,0,2161.89,603.48Zm83.25-1,1.65.55c.44-1.21.89-2.41,1.34-3.62l-2.52-.5C2245.45,600.15,2245.3,601.34,2245.14,602.53Z"/><path class="a" d="M980.89,543.39c4.27,3.56,3.7,7.88,3.73,11.7.11,11.87-.33,23.75-.4,35.62,0,6.17-1.86,10.86-7.54,14.35-6.11,3.76-11.13,9.4-17.42,12.74-8.3,4.41-17.1,8.61-26.19,10.52-5.9,1.24-11,4.26-16.88,5.32-5.11.91-10,2.36-15.36,2.69-10.42.63-20.77,2.31-31.16,3.56a14.53,14.53,0,0,1-3,.31c-7.42-.68-14.84-1.42-22.26-2.15-2-.2-4-.74-5.93-.57-8.64.77-17-1.38-25-3.65-8.54-2.41-17.54-3.23-25.63-7.68-12.13-6.67-24.61-12.67-34.45-22.75-2.63-2.69-4.09-5.29-1.21-9.14a11.13,11.13,0,0,0,1.53-7.67c-.47-3.09-4.6-4.18-8.94-3.05-6.77,1.77-7.16,1.34-10.29-4.52-6.38-11.95-10.67-24.41-11.55-38.06-.67-10.14-3.13-20-2.95-30.42s-.44-20.86-.73-31.3c-.08-2.93-1.52-5.85-1.41-8.74.34-8.39.84-16.8,1.88-25.13.91-7.37,2.61-14.64,4-21.94,2.2-11.41,7.4-21.44,14.18-30.74a56.5,56.5,0,0,0,3.71-5.64c5.31-9.6,13.52-16.12,22.55-21.92,3.33-2.14,6.18-5,9.29-7.49a20.87,20.87,0,0,1,3.71-2.48c5.14-2.5,10.46-4.66,15.48-7.37,6.54-3.52,13.72-4.25,20.79-5.49,7.8-1.37,15.64-2.52,23.48-3.64,2-.29,4,0,6-.22,4.17-.45,8.31-1.15,12.49-1.58,3.22-.32,6.52-.82,9.69-.45,5.41.63,10.74,1.91,16.1,2.88,1.48.27,3.07.88,4.45.59,7.13-1.51,13.49,2,20.24,2.86,2.1.27,4.2.55,6.29.93,1.2.21,2.64.28,3.51,1,5.72,4.72,13,5.63,19.46,8.44s14,4.59,18.44,11.41c2.4,3.65,6.8,5.91,9.62,9.35,4.43,5.4,8.31,11.25,12.37,16.94,7.43,10.42,10,22.73,12.54,34.83,1.43,6.74,1.27,13.89,1.28,20.85,0,8.2-.46,16.4-1,24.59a72.52,72.52,0,0,1-1.7,9.52c-.19,1-1.24,2.19-.93,2.73,2.91,4.92-.18,9.15-1.3,13.62-.59,2.39-.59,5-1.68,7.16-1.44,2.81-3.16,6.43-5.69,7.5a44.27,44.27,0,0,1-14.45,2.91c-7.86.48-15.76.22-23.65.27-2,0-4.2.6-5.92-.07-8.28-3.2-16.72-1.74-25.18-1.58-8.88.17-17.77-.29-26.66-.44-6.69-.11-13.38-.14-20.07-.21-7.39-.08-14.79-.42-22.16-.16s-15,.88-22.39,1.81c-4.27.54-5.24,3.62-4,8.63,1.3,5.3,2.22,10.7,3.17,16.08.15.86-.46,1.85-.72,2.78,1.6.56,3.89.61,4.69,1.74a59.61,59.61,0,0,0,31.3,22.82,81.65,81.65,0,0,0,13.11,2.65c4.43.65,9.2.1,13.3,1.55a12.46,12.46,0,0,0,9.29,0c4.63-2.09,9.19-1.64,13.86-1.53.74,0,1.69.58,2.17.28,7-4.32,15.12-2.43,22.47-4.37,5.88-1.56,11.47-4.23,17.18-6.44a42.51,42.51,0,0,1,4.12-1.8,138.35,138.35,0,0,0,29.32-11.43A35.59,35.59,0,0,1,980.89,543.39Zm-162.25-54.2c-2.36,1.41-3.39,3,.09,6-.13-2.73-.22-4.47-.28-6.2,2,0,4.47,1.05,5.6-2.1C821.28,486.11,819.47,486.57,818.64,489.19Zm26.91-83.65c-.7.93-.6,3.27-4.09,3.67-3.26.38-6.26,3.59-9.2,5.79-1.13.85-1.52,2.71-2.67,3.51-7.3,5.14-9.63,13-11.94,20.94-.76,2.62-1.31,5.32-2.31,7.84-2.08,5.22-.67,8.27,4.73,9,6.09.82,12,1.57,18.39.38,7.61-1.41,15.67-.65,23.52-.43,7.23.2,14.4-.46,21.71,1.12,5.64,1.23,11.82-.25,17.75-.13s9.77-2.43,8.84-8a12.86,12.86,0,0,1,2.29-9.8c-1.5-4.56-3.35-8.46-4-12.55-1.64-10.31-9.71-14.83-17.32-19.4-3.87-2.32-8.8-3.42-13.37-3.87-5-.49-10.24.33-15.37.67C857.09,404.6,851.69,405.07,845.55,405.54Zm72.08,184.21c-6.63,3.59-6.72,4.75-.92,9.47,6.11-3.24,12.59-1.2,18.91-1.32-2.73-2.93-2.74-3.25-6.44-3.07C924.34,595.06,920.35,593.86,917.63,589.75Zm-60.12-6.66c-.22-2.46-.45-4.92-.66-7.3-7.69-.87-7.69-.87-9.81,3.92C851.83,577.47,855.06,578.77,857.51,583.09Zm75.93,23.68c.91,3.85-3.08,8.62,2.38,11.44C938.41,611.17,938.25,610.13,933.44,606.77Zm-93.58,2.93a26.7,26.7,0,0,1,3.06-3.31,25.17,25.17,0,0,1,4-1.92c-4.67-1.59-8.1-2.15-11.08,1.65Zm-11.49-29.18c.18-3.32.29-5.4.49-9.13l-8.15,6.29Zm115.16-7.13c1.1,3.4,1.91,5.94,2.73,8.48C946.64,578.9,950.94,575,943.53,573.39ZM878.59,600c-.69-4.35-3.56-4.16-6.45-5C871.84,600.88,875.38,599.62,878.59,600Zm-3.32-22.79-2.08,1c1,2.31,2.09,4.62,3.5,7.72C880.62,580.65,875,580.05,875.27,577.19ZM746.62,555.88l2.45-.36-.93-6.39-1.52.15ZM917.26,449l3.85,6.32C921.43,449.82,921.43,449.82,917.26,449ZM776.06,574.31l-5.4,5.09,5.4,1.58ZM940.81,380l2.59-1c-.54-1.61-1.09-3.22-1.63-4.82a16.62,16.62,0,0,0-2.51.95A46.92,46.92,0,0,0,940.81,380Zm-175,196.17c-1.28,1.35-2.59,2.12-2.59,2.89a3.26,3.26,0,0,0,1.84,2.55c.87.16,2-.92,3-1.46C767.41,579,766.78,577.93,765.81,576.18ZM906.67,583c-.14,2.76-.27,5.53-.41,8.3C910.28,588.55,908.31,585.72,906.67,583Zm29.9-87.7-1.09-2.06-4,2.05a16.31,16.31,0,0,0,1.35,2.14A33,33,0,0,0,936.57,495.25ZM923.75,489c-4.45-2.37-5.09.35-6,2.54-.09.23.39.7.77,1.35Zm-70,126.1,2.68-7.08C852,609,851.17,610.54,853.78,615.13ZM971.36,451.47l4.94-3.78-6.5-.42ZM800.23,595.85l1.83,1c1.7-1.35,2.71-3,1.83-7.09Zm-8,.18c-2.77,3.33-2.77,3.33-.89,7.5C791.71,600.16,792,598.09,792.2,596ZM967.69,422.91c.95-2,2-3.48,1.76-3.71-.85-.84-2.12-1.24-4.37-2.37C966.16,419.36,966.69,420.59,967.69,422.91ZM861.08,615.84l1.29-.87-2.58-3.67-1.15.79Q859.87,614,861.08,615.84ZM744.42,506.25l1.71-1-1.89-3.31c-.56.39-1.65,1-1.59,1.15A27.45,27.45,0,0,0,744.42,506.25Zm228.69-67.67,1.3.1c.15-1.36.31-2.72.46-4.08l-1.52-.12ZM906.39,576c-.41.38-.81.77-1.21,1.16a36,36,0,0,0,2.49,2.74,10.13,10.13,0,0,0,1.46-1.14Zm-56.95,15.47.9.19,1.14-4.1-1.36-.3C849.89,588.64,849.66,590,849.44,591.45ZM973.26,458.31l1.28,1.25,2.57-2.92-1-.89ZM905,384.66a10.62,10.62,0,0,0,1.65-2.38c.1-.29-1-1.36-1.1-1.29a4.93,4.93,0,0,0-2,1.55C903.4,382.75,904.22,383.6,905,384.66Zm58.74,15.95c-1-.46-1.65-1-2.11-.88s-1.07.79-1.59,1.22c.43.49,1,1.46,1.25,1.38A11.5,11.5,0,0,0,963.69,400.61ZM764.93,429.23l-.87-.56c-.4.28-1.11.55-1.12.85a6.86,6.86,0,0,0,.49,2ZM906.08,599.55c-.58-1.08-.89-1.65-1.21-2.22a8.63,8.63,0,0,0-2.15,1.45c-.17.2.53,1.65.86,1.66A7.74,7.74,0,0,0,906.08,599.55Zm70.78-29.93c.16-.66.31-1.31.47-2-1.24-.14-2.47-.3-3.7-.37a6.81,6.81,0,0,0-.23,1.21C974.53,568.93,975.7,569.26,976.86,569.62ZM870.41,490.23l1.34.38,1.47-4.72-1.33-.38C871.4,487.08,870.91,488.66,870.41,490.23Z"/><path class="a" d="M2715.63,624.67c-1,1.26-1.64,3-2.74,3.37-10.2,3.15-20.49,5.89-31.34,3.7-.24,0-.47-.3-.69-.28-8.52.51-17.1.57-25.53,1.71-10.37,1.39-20.28.74-29.91-3.49a8.77,8.77,0,0,0-2.74-.19c-5.64-.36-11.31-.54-16.92-1.17-2.15-.24-4.21-1.41-6.26-2.29-5.73-2.46-11.23-5.8-17.2-7.26s-8.37-4.78-8.8-10.37c-.09-1.21-.31-2.41-.55-4.19-1.42.08-2.71-.18-3.69.25-6.93,3-11.36-1-15.62-5.42a99.55,99.55,0,0,1-7-7.7,95.15,95.15,0,0,1-7.6-11c-3.07-5.39-5.18-11.4-8.69-16.45-2.19-3.14-.94-6.91-3.77-10-2.4-2.65-2.55-7.36-3.64-11.18-1.91-6.63-3.78-13.28-5.68-19.91-.27-.94-1.06-1.92-.91-2.76,2.34-13-.75-25.83-1.4-38.74-.22-4.43.48-8.91.87-13.37a124.14,124.14,0,0,1,1.42-13.37c1.83-9.38,3.44-18.88,6.26-28,3.46-11.17,8-22,12.3-32.91.66-1.67,2.89-2.65,4.13-4.16,2.85-3.49,5.53-7.11,8.3-10.66,1.22-1.57,2.21-3.83,3.83-4.48,5.76-2.33,8.56-7.77,13-11.47,5.16-4.32,10.21-8.26,17.19-9.76,4.45-.95,8.22-4.74,12.65-6.16a186.9,186.9,0,0,1,20.2-4.74,171.83,171.83,0,0,1,18.12-3c7.92-.73,16.24.47,23.76-1.54,8.63-2.31,16.74,3.16,25-.09,9.94,2.15,19.86,4.45,29.85,6.4a88.46,88.46,0,0,1,17.84,5.23c5.38,2.27,8.39,5,7.44,11.06-.14.86.37,1.82.74,3.39a28.83,28.83,0,0,0,3.45-1.9,6.66,6.66,0,0,1,8.4-.2,101.37,101.37,0,0,1,9.3,7.38c3.73,3.25,7.27,6.69,10.91,10,5.45,5,8.43,11.57,11.46,18.08,7.42,16,9.18,33,9.23,50.33,0,4.44-1,8.88-1.55,13.32-.16,1.23-.87,2.46-.75,3.63.42,4.2,2.43,8.77,1.32,12.43-1.22,4-2.82,7.84-2.92,12.17-.16,7.14-4.24,12.67-8.1,18.18a6.4,6.4,0,0,1-4.45,2.41c-13.15.22-26.17,2.64-39.51.59a104.45,104.45,0,0,0-33-.28c-3.36.56-7-.37-10.45-.42-10.15-.14-20.31,0-30.46-.31-8.45-.23-16.88-1-25.33-1.28-6-.21-12-.11-18-.06-3.32,0-5.21,1.58-4.81,5.17.44,3.93.37,8,1.39,11.76,2.28,8.44,5.46,16.45,10.87,23.62A33.65,33.65,0,0,0,2639,559a96.91,96.91,0,0,0,27.67,7.47,118.68,118.68,0,0,0,34.93-1.4c11.74-2.25,23.45-4.88,35-8.09,6.66-1.85,13-5,19.33-7.88,5.43-2.43,10.72-5.16,16-7.81,7.65-3.81,14.08.32,14,8.86-.05,9.49.27,19,.15,28.46,0,2.85-.93,5.72-1.61,8.53-.29,1.19-1.41,2.21-1.56,3.39-1.59,12-10.35,17-20.26,21a55.47,55.47,0,0,0-7.4,3.48,76.77,76.77,0,0,1-28,9.85c-1.91.28-3.72,1.27-5.57,1.91C2719.07,627.71,2716.82,627.42,2715.63,624.67ZM2558.19,422.4c2.09-4.55,2.09-4.55-1.38-7.61.56,3,1,5.29,1.43,7.59-1.54,2.06-.89,3.44,1.86,4.74.06-1.23.39-2.23.06-2.9S2558.82,423,2558.19,422.4ZM2721.07,487l-.17-.22,5,5.87c-1.42,2.81-3,6.77.34,11.12,1.52-6.17,7.41-11,3.24-18.22-3.15-5.49-5.2-11.63-12.2-14.7-.68.28-2.1,1.34-3.41,1.24-1.49-.12-3.51-1-4.14-2.1s-.42-4,.42-4.55c6.45-4,4.09-10.45,5.51-16.12-8.87-.5-2.7,6.79-5.4,8.88l-10.44,3.08c.53,5,.53,5-1.44,8l-1.49-4.17c-4.37,10.59-2,18.31,6.42,21.63-.11,1.75-.22,3.55-.28,4.53,3.41,1.2,6.05,2.81,8.75,2.89s5.53-1.33,8.74-2.21C2721.1,490.76,2717.17,488.25,2721.07,487Zm-14.82-33.67c.51-2.4,1.28-5.46,1.79-8.57.37-2.2.32-4.48.58-6.7a32.52,32.52,0,0,0-3.6-19.5c-5.17-9.78-14.25-14.22-23.58-18.48a4.3,4.3,0,0,0-3.31-.16c-3.93,2-7.63.9-11.59.08a31.75,31.75,0,0,0-11-.27,41.72,41.72,0,0,0-11.4,3.61c-7.22,3.46-14.59,6.25-20.06,13.13a58,58,0,0,0-12.67,32c-.21,2.37.38,4.54,3.45,4.76,5,.37,10.1,1.75,14.88,1,13-2.1,26-.8,39-.84C2680.89,453.32,2693.07,453.34,2706.25,453.34Zm-13.89,164.19a20.92,20.92,0,0,0-.19,3.75c.52,3.48,3.08,4.21,6,4.11s4.57-.91,4.18-4.53c-.37-3.37,3.64-4.29,5.16-3.78,8.27,2.8,10.66-1.61,11.8-8.43.28-1.67,1.29-3.21,1.94-4.82.26-.65.46-1.33.76-2.22l-3.36-2.29-3.34,2.65c-.41-5.84-.41-5.84,3.25-9-3.13-6.73-3.13-6.69-10.87-5.51a2.82,2.82,0,0,1-2.39-.86c-2.61-4.44-5.33-1.83-8.6-.49l4.68,3.69-3,3.43,8.73.68-5.79,11.37-3-6.67c-1.78,3.34-4.18,5.74-4.07,8,.21,4.67,1.77,9.28,2.78,13.92C2694.76,620.77,2693.8,620.23,2692.36,617.53Zm42.66-144,1.14-1.16c-2.16-3.15-4.48-6.21-6.42-9.49-1.19-2-2.6-4.42-2.41-6.52.16-1.71,2.76-3.09,3.86-4.88.77-1.24.84-2.92,1.22-4.41-1.34-.33-3.75-1.17-3.87-.92-1.6,3.34-5.12,3-7.62,4.43-1.49.88-3.16,3.17-3.07,4.72.25,4.3.77,8.82,2.46,12.69.69,1.59,4.69,1.7,7.14,2.58S2732.5,472.57,2735,473.56Zm-53.81-.73-8.66,12.77c7.08.72,7.22,5.8,8.08,10.63,1-2.25,1.95-4.39,1.83-6.47s-2.5-4.25,1.74-5.12c.65,1.35,1.28,2.66,2.34,4.89,1.12-2.52,1.8-4.06,3-6.7C2683.24,482.4,2687.16,474.25,2681.21,472.83Zm82.43-15.16c-2.13,4.67-1.85,9.32-.42,14.1,1.57,5.26,1.48,5.29,7.62,4.91.74-2.56,1.47-5.12,2.34-8.13C2764.44,469.38,2769.11,459.62,2763.64,457.67Zm-8.12-.89c-2.51,4.59-6.27,8.25-5.88,13.85s5.41-.48,6.64,2.85c.07.18,2.52,0,3-.61s.41-2.82-.15-3.16c-4.27-2.62-3.41-6.57-3.12-10.45A10,10,0,0,0,2755.52,456.78Zm-110.47,160c6.58-4.19,3.68-10.06,4.64-15.67l-10,4.13Zm101.53-32c.73-4,1.55-6.58,1.55-9.19,0-1.28-1.33-3.34-2.41-3.61s-3.6.88-3.91,1.88A10,10,0,0,0,2742,580C2742.67,581.66,2744.6,582.79,2746.58,584.76Zm-29.52-3.33,1.78-.33c.72-3.15,1.45-6.31,2.45-10.69l-5,3.34-4.9-4.12C2707.6,577.57,2716.45,577.06,2717.06,581.43Zm-75.67-107.65,10.86,2.88c-1.93-3.94.33-9.33-4.68-10.44Zm-67.17-12.14,6-.32c-1.52-3.49,4.52-8.39-2.18-11C2576.74,454.09,2575.58,457.56,2574.22,461.64Zm-6,21.52,1.79-.46c-.29-1.73-.6-5-.88-5-4.53,0-2.82-3.09-2.75-5.21a42.34,42.34,0,0,1,.71-5l-1.67-.32q-1.41,5.07-2.8,10.09ZM2751,436.68l-8.36-5.81c-.75,2.86-1.22,4.65-2.07,7.92C2744.4,435.77,2747.29,442.38,2751,436.68ZM2537,450.82c-1.33,2.51.25,5.65,1.93,4.69,3.29-1.9,4.69,1.92,7.17,1.43C2545.3,449.91,2545.3,449.91,2537,450.82Zm224.09,33.45c-2.3-3-4.93-2.38-6-.58s-4.2,4.17,0,7.19ZM2604.81,382.08l-1.76-.95c-1.13,1.58-2.81,3-3.18,4.77-.21,1,1.67,2.47,2.61,3.73.95-1.13,2.31-2.13,2.73-3.44S2605,383.47,2604.81,382.08Zm145.76,26.55,1.81.67c.77-2.08,1-5.36,2.42-6,3.09-1.41,3.31-2.68,1.93-5.39C2751.06,400,2751.32,404.57,2750.57,408.63ZM2620.44,596.07l4.64,10c1.5-2.6,3.4-4.39,3.11-5.7C2627.55,597.51,2624.66,597,2620.44,596.07Zm-83.68-109.86c.15,1.49-.05,3,.5,4.13.61,1.29,2,2.17,2.84,3.4a23.19,23.19,0,0,1,1.56,4.15c.79-2.83,1.31-4.69,1.81-6.46ZM2582,588.77c-3.11,2.86-5.23,4.69-3.48,8.08l5.59-1.39Zm106-6.41,2.72,7.89,4.31-5C2694.18,581,2691.9,580.26,2688,582.36Zm-55.1,30.19c-6.37-4.13-9.52-3.9-11.94,0ZM2705.53,570l-8.09,5.94h9.23C2706.32,574.1,2706.06,572.76,2705.53,570Zm-39.81,32.91a23.54,23.54,0,0,1-3.38,1.82,27.83,27.83,0,0,1-4.31.63l4.06,4.49C2663.65,607.63,2667.18,607.4,2665.72,602.89Zm-4.57,26,6.18-2.73c-.81-1-1.55-2.78-2.45-2.86C2662,623,2660.51,624.58,2661.15,628.88Zm65.51-206.49,8.76-4.38-6-2C2728.51,418.11,2727.77,419.82,2726.66,422.39Zm-173,86.23c4.8-2.69,4.27-5,0-6.9Zm2.77-104.25v7.16C2560.67,408.77,2560.67,408.77,2556.38,404.37Zm7.65,30.74-1.65-.11c-.46,2.52-.91,5.05-1.49,8.22C2566.14,441.18,2564.54,438,2564,435.11Zm69,160.29.75-1.53c-3.78-3.34-3.78-3.34-8.17-1.41Zm11-4-4.29,5.74C2645.07,598,2645.07,595.87,2644,591.41Zm131.2-173.33-4.49-2.67c-.46.77-1.48,2-1.29,2.25a12.19,12.19,0,0,0,3.35,2.65C2773,420.44,2774,419.27,2775.24,418.08ZM2588.5,470.94c1.8-2.38,3.53-4.95,1.13-8.62C2586.9,465.07,2587.47,467.88,2588.5,470.94ZM2585.11,404l1.77.58,2.53-6.24C2584.51,399.34,2584.11,401.34,2585.11,404Zm185.56,49.72c.59-4.47-2.24-3.66-4.46-3.28-.59.1-1,1.22-2.14,2.68ZM2578.13,575.91l-1.4-.86-4.35,2.75,2.79,4.47Zm50.18-1.54-5.06,2.14c1.65,1.68,2.89,2.94,5.06,5.12Zm102.55-93.95c1.07,2.81,2.5,4.17,5.1,3.21a2,2,0,0,0,.64-1.85C2735.37,479.85,2733.89,478.19,2730.86,480.42Zm-134.7,94.52,3.71,5.6C2601.93,576.44,2602,574.56,2596.16,574.94Zm40.08-87-5.6,2.68,6.58,2.76Zm81.12-43.85c3,.17,5.3-.58,5.17-4.09Zm51,40.54c-1.27-1.1-2-2.2-2.54-2.12a9.8,9.8,0,0,0-2.92,1.54c.55.69,1.08,1.92,1.65,1.94C2765.52,486,2766.55,485.31,2768.32,484.62Zm-12,104.83-2.22.54,1.81,5.71,1.61-.41Zm-6.41-180.08-2.44-5.59-4.26,2.47Zm10.19,21v-7.1l-3.73,3.55Zm-123.32,55.21,1.77-1.44-4.15-4.12c-.39.34-.77.69-1.15,1Zm-21.15,124-1.37-1.53-3.78,4.25,1.25,1.16Zm54.61-122.08c.53-2.39.82-3.68,1.23-5.52C2667.79,482.85,2667.22,484.15,2670.25,487.45Zm-109.88-37.69-1.51.36c.45,1.45.91,2.9,1.37,4.34l1.34-.4Zm22.83,127.61-1.09-.74-2.11,2.78,1.61,1.16ZM2571.56,451l-1.14,1.22,1.95,1.83c.44-.48.87-1,1.31-1.43Zm22,155.19c.13,2.7.19,4.27.33,5.83,0,0,1.07.2,1.31,0C2596.94,610.25,2596.37,608.7,2593.55,606.2ZM2680,461.88l-.54,1.33c1.07.42,2.13.87,3.23,1.22a10.65,10.65,0,0,0,.58-1.24Zm-5.92-113.8c-.35.2-.71.39-1.07.58l1.83,3.92,1.3-.68Zm.84,275.57,1.49.25-.21-3.37h-.61C2675.41,621.57,2675.18,622.61,2675,623.65Zm-.4-28.48c-1.36-.83-2.11-1.65-2.59-1.51a3.17,3.17,0,0,0-2,1.68c-.15.51,1,2,1.39,1.94C2672.2,597.12,2673,596.28,2674.56,595.17Zm-124-39.24c-.56.77-1.3,1.35-1.23,1.79s.86,1,1.34,1.43c.46-.47,1.26-.94,1.28-1.44S2551.2,556.7,2550.56,555.93Zm36.3,35.2-1.24.48c0,.69-.25,1.55.07,2s1.24.8,2.95,1.78Zm70.71-117.87,1-.55-1.63-3.07-1.12.63Zm-99.76,17.52,1.53-.21-.36-3.1-1.78.23Z"/><path class="a" d="M1027,316.59c-9.51-1.89-9.72-8.4-9.56-15.11.11-4.47.38-9,.26-13.42a74.94,74.94,0,0,0-1.11-9.54c-.27-1.73-1.36-3.42-1.26-5.08.34-5.42-1.4-10.26-5.53-13.27-4.33-3.17-9.42-6.63-14.48-7.19-10.91-1.22-13-6.36-8.77-15.39,3.86-8.29,3.25-16.92,5.49-25.2.5-1.86.29-3.91.73-5.8,1.31-5.67,3.71-9.77,10.52-10.77,5.64-.83,11-2.48,17-2,4.59.35,9.36-.64,13.94-1.57,3.93-.79,7.69-2.41,11.73-.53a3.37,3.37,0,0,0,2.22.05c6.5-2,13-4.07,19.45-6.1a14,14,0,0,1,4.3-1.07,53.15,53.15,0,0,0,25.36-5.11,12.4,12.4,0,0,1,5.19-.73,92,92,0,0,0,22.09-3.29c9.88-2.48,15.28,1.27,18,11.16,2.5,9.12,5.43,18.13,7.66,27.32.79,3.25.33,6.9,0,10.32-.36,3.59-2.73,5.77-6.15,6.81a31.62,31.62,0,0,0-4.22,1.4c-14.12,6.64-18.31,18.95-15.86,34.93.79,5.13.62,10.41.91,15.62.27,4.73.74,9.45.8,14.18.06,4.44-.33,8.88-.47,13.32-.15,4.74-.32,9.49-.34,14.23q0,20.6,0,41.19c.07,19.87.11,39.73.34,59.6.12,10,.94,19.89.91,29.83s-.73,19.93-1.14,29.89c-.46,11-1,21.92-1.35,32.88-.25,8.49-.71,17,1.5,25.37a9.43,9.43,0,0,1-.43,5.16c-2.28,6.72,0,12.85,2.35,18.9,2.19,5.66,6.79,8.47,12.61,9.45,1.72.29,3.46.54,5.2.75,8.7,1,9.21,1,7.64,11.26s-4.4,20.42-6.82,30.58a29.39,29.39,0,0,1-2.84,7.66c-1.92,3.4-4.59,5.1-9.12,5.12-9.46,0-18.9,1.46-28.37,1.8-5.4.19-10.84-.78-16.26-.95-9.24-.28-18.47-.41-27.71-.49-10.69-.08-21.38,0-32.07,0-6.19,0-12.4.21-18.55-.29-4.94-.41-7.65-3.43-8.41-8.15-2.21-13.74-4.35-27.49-6.59-41.68,4.68-2.13,9.14-5.17,15-5.22,5,0,8.22-3.75,10.33-7.62a23.92,23.92,0,0,0,2.77-10.79c.12-8-.61-16-.89-24-.14-4,0-8-.12-12-.7-19.63.31-39.22,1.16-58.82.21-4.87-1.08-9.79-1.24-14.7-.14-4.2.67-8.43.51-12.63-.32-7.95-1.18-15.88-1.57-23.84-.42-8.64-.28-17.32-.92-25.94-.53-7.12-1.87-14.17-2.79-21.27a38.47,38.47,0,0,1-.4-6c.17-6.7.72-13.4.61-20.1-.07-4.44.66-8.28,3.28-12C1023.57,324.68,1024.81,321.08,1027,316.59Zm62.57,122.62c2.29-4.29,1.94-5.13-3.46-7.26,1.36,2.72,2.52,5.05,3.73,7.4-2.7,2.66-2,5.39-.2,8.14C1089.86,444.74,1093.65,441.94,1089.58,439.21Zm.44,150.16c1.17-6-3.67-4.55-6.72-5.49a4.22,4.22,0,0,0,1.78,3.09,42.81,42.81,0,0,0,5.08,2.25c-1.62,1-3.25,1.93-5.1,3,2.45,5.11,7.5,4,11.48,5.44C1094.36,594.92,1092.18,592.16,1090,589.37Zm-33.91-3-8.38,9.94A10.6,10.6,0,0,0,1050,598c1.44.65,3.39,1.71,4.46,1.2s2.06-2.66,2.17-4.16C1056.86,592.41,1056.36,589.75,1056.11,586.4Zm51.35,22.66-10.66.59c-1,3-1.6,5.87.84,8,3-1.62,5.47-3.05,8-4.31C1108.4,612,1108.73,610.4,1107.46,609.06Zm-57.29-151.58c-1.12-3.7,1.84-8.23-2.23-11.67C1042.64,451.22,1049.41,453.9,1050.17,457.48ZM1078.6,598.3l11.53,5.61-8.4-11.55Zm57.8-5.32c3.06-.16,5,.28,6-.5.71-.57.14-2.73.14-6Zm-35.94-177.45c-5.24,4.32-5.24,4.32-2.29,6.93C1098.93,420.16,1099.69,417.84,1100.46,415.53ZM1076.1,580.68c.51-2.89.9-5.07,1.49-8.39C1073.34,575,1070.8,576.72,1076.1,580.68ZM1043,422.13l-2.44.43c.59,2.44,1.19,4.87,1.78,7.31l1.8-.35Zm41,195.89-.77,1.61c4.37,5.14,4.37,5.14,8,2.28Zm-38.83-28.59c-1.88-2.59-3.73-1.73-5.28.18-.36.45,0,2.34.43,2.46C1042.68,592.8,1044.61,592.33,1045.22,589.43Zm60.48-239.64v9.28C1104.66,356.27,1110.32,353.38,1105.7,349.79Zm-47.59,74.08c-4.45,2.75-4.5,3.05-1.8,7.75Zm9.44,153.78-1.67,0,.36,7.91,1.31,0Zm27.2-54.39c-1.54,3.37-.2,4.94,2.09,7.2C1098,527,1096.75,525.39,1094.75,523.26ZM1081,564.77c-.24-.63-.26-1-.42-1.06-1.17-.66-2.36-1.29-3.58-1.85a5.36,5.36,0,0,0-.72,1.06,19.76,19.76,0,0,0,2.65,1.82C1079.3,564.94,1079.87,564.77,1081,564.77Zm-28.29,9.07v6.21C1055.11,577.25,1056.13,575.6,1052.71,573.84Zm29.46-176.9c4.11.09,6.35-.18,6.83-4ZM1055.83,552c2,4.2,2,4.2,5.12,1.43Zm23.32-45-2,.35c.2,1.2.39,2.4.58,3.6.66-.16,1.87-.35,1.87-.5A24.11,24.11,0,0,0,1079.15,507Zm28.36,36.17,1.45.11c0-1.19,0-2.38-.06-3.56a12.83,12.83,0,0,0-1.39,0Zm-11.85-70.64c-5.18.66-1.85,2.92-1.53,4.51a13.59,13.59,0,0,0,1.53-.13Zm-90.6,127.65-1.15,1,2.71,3.18,1.1-.93Zm80.11,7.34-1.9-.21c-.2,1.42-.39,2.84-.65,4.75C1086.89,611.17,1086.4,609.47,1085.17,607.56Zm11.72-69.14.42,1.76,4.7-1.31c-.09-.4-.17-.8-.26-1.2Zm8.41-36.5a9.43,9.43,0,0,0-2.29-1.69c-.38-.1-1,.66-1.52,1a8.12,8.12,0,0,0,1.61,1.94C1103.32,503.35,1104.17,502.6,1105.3,501.92Zm-52.63-62.07,1.12-1.7a23.62,23.62,0,0,0-3-1.91c-.14-.06-.84,1-1.28,1.59Zm-1.37-92.32-1.54-.77c-.74,1.07-1.48,2.16-2.34,3.39C1051.06,351.65,1051.07,349.48,1051.3,347.53Zm42.43,219.7c.79,2.85,1.15,4.17,1.63,5.92C1099,570.47,1098,569.16,1093.73,567.23ZM1057.27,383l-1.53-1.07-2.32,3.87,1.54.92Zm-21.13,50.82c-.18-3.24-1.23-4.45-4.5-3.85Zm67.19,124.29c-.22-.38-.43-.76-.65-1.13-.92.12-2.19-.08-2.69.44s-.51,1.88-1,4.13Zm-51.94-17.67,2-.51c-.22-1.17-.45-2.35-.68-3.52a8.34,8.34,0,0,0-1.8.47A28.79,28.79,0,0,0,1051.39,540.48Zm42.87,2.84-1.43.39L1094,548l1.2-.29C1094.89,546.23,1094.57,544.78,1094.26,543.32Zm-8.77-74.19,1.36.4c.31-1,.65-2.08.87-3.15a6.66,6.66,0,0,0-1.28-.54C1086.13,466.94,1085.81,468,1085.49,469.13Zm24.79,12.55-1.4-1.71c-.43.42-1.22.85-1.22,1.27s.65,1.06,1,1.59C1109.16,482.49,1109.64,482.14,1110.28,481.68Zm-19.73-174.22.92-.72-2.16-4.85c-.53,2-1.15,3-.88,3.71S1089.81,306.85,1090.55,307.46Z"/><path class="a" d="M2434.35,621.56c-.28,2-.55,4.08-1.06,7.8l-5.35-5.57c-.3.11-1,.15-1.05.41-.75,1.93-1.39,3.91-2.06,5.87l-1.54-.09c-.37-1.17-1.09-2.37-1-3.52a61.08,61.08,0,0,1,1-6.36c1.11-3.54,1.11-3.54-2.71-4.24l2.85,4.27c-1.18.2-2.63,0-3.51.66-7.05,5-9.41,5.43-17.07,2.11-.73,1.55-1.16,3.38-2.28,4.58s-2.85,1.64-5.34,3c.37-2.86,1.08-4.8.68-6.46-.27-1.11-2.12-1.84-4-3.32l8.85-5-3.46-6.24-10,9.35c.27.85,1,3.08,1.7,5.3,1.29,3.9,0,5.81-4,5.87-5.54.07-9.47-3.81-11.68-9.83-3.16-8.58-3-17.56-4.23-26.39-.36-2.69-1.41-5.29-1.72-8a77.11,77.11,0,0,1-.06-8.37c4.83-.48,8.79-.63,12.65-1.3a17.58,17.58,0,0,0,14.68-16.39c.88-11.73,2-23.44,2.72-35.17.35-6,.06-11.94-.07-17.91-.19-8.64-1.27-17.21-.1-25.95.91-6.8,0-13.84-.09-20.77-.23-12.12-.52-24.24-.73-36.36-.18-10.23-.22-20.46-.47-30.69-.06-2.73-.07-5.7-1.13-8.11-1.53-3.47-2-6.58-.31-10a3.68,3.68,0,0,0,.2-2.23c-2.45-11.52-.3-23.19-1.21-34.79s-.88-23.34-1.33-35c-.32-8.45-.44-16.93-1.26-25.34a62.32,62.32,0,0,0-3.39-13.74c-2.51-7.4-9.09-10.13-15.7-12.62-1.4-.53-3-.67-4.34-1.22-7.43-2.94-9.51-6.12-7.87-13.88,2-9.27,4.76-18.36,6.78-27.62,1-4.73,4.25-7.35,7.83-9.52a77.23,77.23,0,0,1,12.21-5.73c3.15-1.21,6.18-2,10-1,4.1,1.08,8.83-.23,13.29-.54,2.23-.15,4.45-.48,6.68-.6,5-.29,9.78-.33,14.59-2.67,4.37-2.13,9.53-2.91,14.44-3.63,9.17-1.35,17.89-3.52,24.22-10.21l14.46,3.82c4.71-7.2,12.8-5.73,19.54-7.59,1.45-.4,4.53,1.47,5.33,3.06a94.07,94.07,0,0,1,6.34,15.83c2.41,8.37,4.08,17,6.24,25.41,1.9,7.47,1.11,9.27-5.65,13.31a95.77,95.77,0,0,0-11.69,8c-4.38,3.63-7.43,8.07-6.39,14.37.3,1.86-.47,3.9-.75,5.85a40.92,40.92,0,0,0-.83,5.86c-.05,14.48.17,29,0,43.43-.2,15.21-.51,30.41-1.29,45.61-1,19-.48,38-1,57-.26,9.26-1.8,18.48-2.07,27.74-.33,11,.17,22,.14,32.92,0,8.73.94,17.74-.88,26.12-1.77,8.11-.19,15.65,0,23.45.2,8.25-.4,16.56.32,24.75.48,5.59,2.79,11,4,16.56,1.75,8.24,8.94,11.33,14.65,15.81.87.68,2.39.56,3.61.76,6.43,1.08,7.08,1.74,6.41,8.36-.59,5.7-1.42,11.39-2.39,17q-1.64,9.59-3.73,19.08c-1.39,6.3-4.2,8.34-10.47,8.16-13.07-.36-26.11-2-39.24-.28a35.78,35.78,0,0,1-11.68-.83c-3.23-.66-6-.9-9.21.44-1.46.62-3.71-.62-5.51-1,.16-6.41.16-6.41-3.5-5.83.71-2,1.39-3.95,2.25-6.43a14.63,14.63,0,0,0,9.21-4.1l-12.61-2c-.49-2.87,4.3-5,.89-8,3.09.67,5.48-1.6,5.17-3.63-.61-4-4.8-2-8.46-4.4l3.48,8.19-5.43.87c-1.68,3.17,5.28,5,0,7.82,2.8,3.53-1.2,5-2.73,7.27C2429.32,618.47,2433.88,616.42,2434.35,621.56Zm59-39.56c2.21-4.11,2.21-4.11-1.1-10-1.2,4.08.85,7,1.22,10l3.27,7.37C2497.34,584.51,2497.34,584.51,2493.33,582Zm-27.14-27,.1.2,5.1-5.41c-3.42-8-3.42-8,1.13-13.74-.62,3.83-1.63,7.77,3.16,10.66.65-1.58.86-3.13,1.74-4,3.85-4,3.91-3.9-1.14-6-1.09-.47-2.09-1.12-3.14-1.68.71-3.35,4.89-6.22,1.35-10.29-1.95-.12-4.16.26-5.85-.5s-2.86-2.68-5.65-5.49c1.22,6.12,2.11,10.62,3,15.2l-6.43,1.95c-.43-2.81.6-5.84-3.37-6.14-2.61,4.27-.56,7.81,2.1,11l-7.07,14.45c1.89,4,3.34,8.38,5.83,12,3.11,4.56-1.54,9.46.81,13.79,6.59-.51,11.79-1.9,11.24-9.67l0,.24c-3.69-5,0-8.58,3.66-13.34C2468.85,558.85,2467.07,557.51,2466.19,555Zm-18.93,44.9,4.69-7.62c-5.62-5.42-5.62-5.42-3.19-11.19l4.82.6c1-3.88,3-7.16-.28-10.24-6.19-5.79-7.81-14.86-3.63-22,1.87-3.17,2.95-6,0-9.62l-3.88,6.23c-.92-4.62-1.92-7.74-2.06-10.89-.14-3.33.53-6.7.85-10.05l-1.51-.67-3.92,4c1.14,3.07,2.92,5.42,2.34,6.73-2.07,4.69-.57,8.43,1.11,12.79,1.1,2.85,0,6.61-.44,9.9-.07.47-2.21.64-3.33.94.84,5.4,5.91,4.33,8,6.17,0,3.9.44,7.22-.1,10.36-.76,4.42-2.85,8.67-3.23,13.08C2443.11,592.19,2443.1,596.46,2447.26,599.88Zm26.48,17.82,7.21-9.5c-5.38-2.37-5,4.6-8.25,4.66l-6-2.24c-3.09,4.6-3.48,8.76-.6,14C2467.62,620.05,2468.54,615.71,2473.74,617.7Zm-20.46-8.82,5.61,13.82c.27-5.47.49-10,.74-15C2457.06,607.44,2454.43,606.32,2453.28,608.88Zm-14.5-29.75c.63-4.46,1.08-7.7,1.64-11.65l-2.09-1.46-6,6.26Zm36.8-80c.42,1.48.84,2.94,1.42,5,2.79-3.5.84-5.67,0-8.11h-9.34l3.79,6.44Zm-54.23-171.43c-.63,3.69-1.09,6.39-1.58,9.3l6.05,1.65C2427.72,333.69,2425.13,331.09,2421.35,327.73ZM2403.87,616.6c.11.54.22,1.08.34,1.63l6.84,1.54c.71-3.14,1.25-5.47,1.77-7.75C2406.69,608.66,2406.59,614.81,2403.87,616.6Zm41.34-104.25c.87,5,1.45,8.35,2,11.7l1.33,0c1.15-2.51,2.29-5,3.6-7.89Zm35,41c-4.93,2.52-4.31,5.85-2.65,9.5C2482.79,559.28,2482.79,559.28,2480.23,553.33Zm-18,40.37,8.22-.42c-.61-2.9-1-4.86-1.52-7.2C2466.65,588.64,2465,590.55,2462.21,593.7Zm13.08-188.28c2.55,1.69,3.82,1,4.44-1.65s1.57-5.13-2.68-5.22C2476.46,400.86,2475.87,403.17,2475.29,405.42Zm20.3,208.63c-3.64,4.75-3.64,4.75-1,9.54C2495,619.59,2495.3,616.82,2495.59,614.05Zm-69.31-53.95c3.1,5,3.1,5,6.31,3.19Zm40.34-110.51c-1,3-2.74,5-.43,7.69C2469.58,455.29,2468.86,453.11,2466.62,449.59Zm-6.78,55.9c-.6,4.37-.6,4.37,4.29,5Zm-20.53-207.08c-2.45,1.72-2.61,3.53-1.11,5.16.44.48,2-.09,3.47-.22Zm-52.37,296.16,1.58-.3c.29-2.09,1-4.29-2.57-6.31C2386.37,590.75,2386.66,592.66,2386.94,594.57ZM2501.75,597c3.19-2.89,3.19-2.89,0-5.89Zm-60.37,20.92-1.08,1.44c.64,1.91,1.6,3.18,4.75.89Zm-44.52-20.7,1.4-.24-.6-3.34c-.46.1-1.34.24-1.34.28C2396.45,595,2396.66,596.09,2396.86,597.18ZM2449.62,610l1.19-1.41-4-3.23c.35,2,.26,2.84.64,3.28A8.59,8.59,0,0,0,2449.62,610Zm-25.85-3.23h-1.34v4h1.34Zm56.28-146.7-1.58-.17c-.21,1.48-.43,3-.65,4.44l1.75.2Zm8.87,96.64,1.73-1.87-3.58-2.83-1.33,1.52Zm10.66,61.14c-.69,1.08-1.43,1.73-1.34,2.22a2.21,2.21,0,0,0,1.52,1.32c.4.08,1.45-.85,1.38-1A13.45,13.45,0,0,0,2499.58,617.88Zm-84.77-130.12c-2.49,2-2.49,2-.7,5C2414.39,490.77,2414.57,489.46,2414.81,487.76Z"/><path class="a" d="M1569.44,352.28c-6.51,13-3.48,25.49,1,37.86,2.14,5.94,2,6.78-3.65,8.78-2.08.73-4,1.91-6.06,2.69-1.35.51-3,1.21-4.25.88a87.09,87.09,0,0,0-26.41-3.36c-3.77.16-6.12-3.34-7-7-2.46-10.89-4.87-21.72-3.59-33.14a35.72,35.72,0,0,1,5.8-16.7,19.75,19.75,0,0,0,1.91-3.25c2.52-5.93,4.69-12.07,10.63-15.19-1.82-3.9-3.43-7.37-5-10.66,5.81-4.8,6.34-5.79,3.94-11.71-6.67-16.46-14.19-32.45-28.32-44.11a93.75,93.75,0,0,0-9.17-6.32c-13.23-8.49-15.19-9.21-32.19-12.14-.85,1.2-2.15,2.44-2.72,4-1.79,4.73-5.37,7-10,8.09-11.47,2.54-22.41,1.55-32.7-4.59-3.73-2.23-8-3.69-11.53-6.14-5.72-3.91-11.08-8.35-16.59-12.57-2-1.51-3.82-3.31-6-4.48-7.29-3.93-12.54-9.83-17-16.65-.95-1.46-1.93-3.24-3.36-4-11.43-6-15.3-18.63-24-27-1.12-6.53-7.33-10.51-8.12-17.46-1.12-9.84,6.32-18.52,15.9-16.51,6,1.25,12.38,3.19,17.22,6.71,5.07,3.7,9.09,3,13.7.93l6.58,3.44c3.89-.49,7.11-.85,10.32-1.31,3.46-.5,7.26-.34,10.27-1.8,6.18-3,12-2.5,18-.14a18.73,18.73,0,0,0,5.84,1.3c12.8.48,21.22,7.86,28.16,17.64a26.36,26.36,0,0,0,1.51,2.6c6.82,7.29,5.46,16.67,6,25.35.23,3.42-2.18,7-3.42,10.61,2.19,4.31,6.38,5.65,10.62,5.95,6.16.44,10.71,3.86,15.54,7q8.83,5.66,17.68,11.28c.63.4,1.51.48,2,1,7.14,6.73,14.54,13.22,21.26,20.36a113.29,113.29,0,0,1,13.1,17c3.53,5.59,5.9,11.9,8.94,17.81,1,2,2.5,3.67,4.53,6.59,1.6-3.11,2.74-4.72,3.31-6.51a119.69,119.69,0,0,1,14.64-29.4c3.81-5.77,7.42-12,14-16.09s10.28-11.74,14-18.83a44.92,44.92,0,0,0,5.23-25.29c-.46-5.74,4.72-11,11.24-11.68,4.54-.47,7.74,3,9.3,8.73a37.32,37.32,0,0,1-3.32,28.87c-2.14,3.92-3,8.52-5,12.52a116.84,116.84,0,0,1-7.09,11.31c-3.82,5.83-7.73,11.59-11.54,17.42a46.17,46.17,0,0,0-4.18,7,50.92,50.92,0,0,0-3.16,9.7c-1.13,5.43-1.84,11-2.88,17.4,3.71-.4,6.31-.57,8.87-1,8.61-1.34,17.2-2.79,25.82-4.11a34.51,34.51,0,0,1,5.19-.17c1.73,0,4,.85,5.1,0,7.38-5.73,16.65-3.16,24.79-5.94,7.19-2.46,13.57-5.81,20.17-9.37,5.39-2.9,7.62-7.88,13.59-11.31-6.21-2.14-10.33.18-14.54.37-2.89.13-5.87.13-7.12-2.84s.33-5.14,2.33-7.86c4-5.5,7.84-11.46,9.1-18.48.05-.29-.6-.7-1.33-1.5-6,3.25-7.72,9.93-11.57,14.86-4.06,5.22-5.8,12.35-12.77,15.28-1.66.7-3.08,2.63-4,4.32-3.57,6.53-9.8,8.26-16.35,9.15-4.4.6-8.4-3.38-9.26-9-1.87-12.35,1.64-23.18,8.68-33.46,4.31-6.31,9.89-10.88,15.47-15.73,5.91-5.14,13.25-7,20.34-9,11.43-3.16,23.35-3.8,35.15-4.65a120,120,0,0,0,35.5-8.17c2.26-.89,4-2.93,6.15-4.27,7.75-5,14.68-4.36,19.48-.24,2.55,2.18,3.84,4.6,2.92,7.91-1.13,4.09-1.73,8.47-3.63,12.18-3.38,6.57-5.43,13.77-11.07,19.36-3.52,3.48-4.92,9.08-7.36,13.68a9.46,9.46,0,0,1-2.65,3.59c-8.15,5.24-11.06,14.54-17,21.5-6.19,7.3-12.06,14.9-18.64,21.82-5.8,6.1-12.29,11.58-18.66,17.11a62,62,0,0,1-27.83,13.45c-9.17,2-19.47,3.39-27.57-4.4-2.12-2-4.4-4.19-5.63-6.75-1.72-3.59-4.6-4.24-7.44-3.27a253.15,253.15,0,0,0-23.68,9.28c-5.42,2.51-4.84,4-1.9,9.18,5.65,10.05,16.38,15.25,22.56,24.77,1.62,2.5,5.24,3.62,7.47,5.84,3.12,3.12,2.6,5-1.32,6.59-1.62.65-3.29,1.53-5,1.61-7.23.38-13.63,2.91-19.7,6.71-2.68,1.68-5.15,1.3-8.24-.48a64.5,64.5,0,0,1-21.39-19.39C1575,353.8,1573.53,351.65,1569.44,352.28Zm-156.73-149c4.21,3,7.5,6,11.36,7.78a96.37,96.37,0,0,0,18.62,6.85c3.58.84,7.9-.1,11.49-1.38,1.64-.59,2.52-3.85,3.18-6.07.12-.39-2.5-1.8-4-2.41-1.69-.7-4.13-.49-5.22-1.64-6.48-6.81-12.61-14-19-20.88a82.61,82.61,0,0,0-6.63-5.78c-1.17,8.43,8.35,12.5,4.64,20.58Zm151.53,143.91c3.48-6.72,3.45-7.43,0-11.11Zm-6.33-9.3c-2.22,2.74-5.37,3-4.25,6.43a1.43,1.43,0,0,0,1.12.76C1558,344.68,1558.15,342.34,1557.91,337.93Zm153.66-75.75c3.28-3.5,3.28-3.5-.77-4.88C1711,258.85,1711.29,260.39,1711.57,262.18Zm-23.84,45.59c2.94,2.31,4.07,1.4,4.19-2ZM1611.94,302l-1.34-.35c-.29,1.1-.6,2.2-.81,3.32a7.64,7.64,0,0,0,1.26.44C1611.35,304.28,1611.64,303.14,1611.94,302Z"/><path class="a" d="M1620.64,182.39l-7.67-5.56c-2.92-14.13-.94-28,2.14-41.67,1.36-6.07,4.13-11.84,6.31-17.72,1.28-3.42,4-6.52,1.88-11.52-7.21,5.71-12.18,12.36-14,21.2-1.14,5.46-2.49,10.76-9.28,13.42-6.47-5.83-13.21-11.36-13-21.8.07-4.79-1.36-9.6-2.21-15.09-4.42,6-6.21,17.84-4.55,24.73a40.25,40.25,0,0,1,1.1,9.47,54.63,54.63,0,0,0,2.92,16.83,79.08,79.08,0,0,0,6.87,15.41c2.32,4.08,4.27,8.27,7.94,11.63,2.83,2.59,4.69,6.43,6.42,10,2.29,4.68,1.28,6.71-2.21,10.72-5.56,6.39-12.92,7.86-20.63,10.14-8.46,2.5-15.66,1.29-23.17-1.59a11.82,11.82,0,0,1-5.37-3.81c-3.88-5.63-9.58-10-11.39-17.11-1.34-5.21-3.48-10.23-4.77-15.46-4.09-16.67-5.3-33.48-2-50.5.8-4.12.63-8.43,1.32-12.59s1.82-8.22,2.85-12.3c.42-1.66,1.43-3.23,1.57-4.9.79-9.32,4.93-17.59,8-26.2a24.91,24.91,0,0,0,1.63-5.63c.51-5.29,1.63-9.95,5.36-14.34,2.54-3,2.59-7.93,4.31-11.75,3.77-8.39,7.5-16.85,12-24.82a28.32,28.32,0,0,1,9.39-9.4C1591-3.22,1602.23,2,1604.77,12a39.75,39.75,0,0,1,1.13,5.91,38.71,38.71,0,0,0,6.43,18.17c3.74,5.66,5.51,12.3,12.34,16.17,4.43,2.51,7,8.18,10.64,12.24,7.49,8.34,15.15,16.53,22.67,24.85a16.11,16.11,0,0,1,2.2,3.89c.42.9.39,2.06.94,2.85,5.52,8.07,6.78,17.41,8.27,26.73a32.64,32.64,0,0,1-.09,11.74c-2.11,11.17-7.34,20.67-14,29.48-7.36,9.73-16.93,16-29.46,17A30.53,30.53,0,0,0,1620.64,182.39Zm16.9-51.72c.2-3.85.32-6,.52-9.66l-5.71,4.21ZM1584.26,182c-2.42,6.23-2.42,6.23.62,7.83C1585.5,187.08,1588.08,184.44,1584.26,182Zm-38.57-52.79c4.38,3,4.38,3,5.28-1.85Zm80.4-47.42,2-.45c-.43-1.49-.85-3-1.27-4.48l-1.32.25Z"/><path class="a" d="M1687.33,487.78c-.93,1.31-1.63,3.47-3,4-9.83,4.13-18.95,10.09-29.67,12-6.76,1.18-13.52,2.83-20.32,3.1-6.14.24-12.66-.11-18.44-2-9.59-3.09-20.28-3-28.71-9.68-1.61-1.27-4.44-1-6.17-2.15-4.25-2.93-8.67-5.54-10.12-11.47-.87-3.6-4.07-6.63-6.41-10.2l5.72-5-5.27-1.59c-1.88-13.14.55-24.88,10.33-34.79,6-6,11.17-12.74,16.9-19s13.32-10,20.55-14.37,14.81-6.9,22.66-8.82a147.85,147.85,0,0,1,47.45-3.35c7,.58,13,3.5,19.09,7.58s10.7,9.23,15.16,14.77c10.77,13.38,10.7,28.85,6.32,43.92a51.44,51.44,0,0,1-20.24,27.79c-2.25,1.57-4.21,3.62-6.57,5C1693.78,485.15,1690.68,486.27,1687.33,487.78Zm-96.87-33.18c-.86,1.88-2.8,4.22-2.77,6.54,0,3.3.5,7.74,2.62,9.6,4.19,3.67,11.26,2.22,15.3,7.08,0,0,.36-.42.54-.41,9.2.55,18.55.26,27.55,1.93a43,43,0,0,0,22.69-1.84c7-2.55,13.13-7.69,19.36-12.09,5.25-3.71,10.2-7.88,15.1-12.05,6.09-5.18,7.94-16.51,4.06-23.4-2.36-4.22-6.06-4.31-8.64-.15-.66,1.05-.81,2.44-1.53,3.42-2.49,3.39-4.5,7.67-7.84,9.79-6.4,4-13.53,7-20.46,10.1s-15.09,2.91-21.5,7.54c-3.49,2.53-6.81,5.19-11.57,3.13a3,3,0,0,0-2.58.84c-3.26,3.51-6.53,2.1-10,.41-2.19-1.07-4.69-1.56-6.84-2.69C1599.84,460.18,1595.88,457.74,1590.46,454.6Zm67.9-56.4-5.23,4.22c2.73,5.44,6.4,4.68,10.18,3.53C1664.61,401.14,1661.06,400.06,1658.36,398.2Zm-67.61,84.4c-1.83,3.36-3,5.6-4.68,8.62C1592.22,490.57,1590.58,486.83,1590.75,482.6Zm17.77-54-.57-1.87-4.78,2.12.51,1.37Zm27.88,21.55c2.59-3.55,2.59-3.55,0-5Z"/><path class="a" d="M1581.75,519.41c-2,4.44-3.58,9-6,13-3.84,6.49-14.17,10.12-21.68,8.18a13.48,13.48,0,0,0-2.18-.57c-11.65-.81-21.14-6.42-30.11-13.33-4.07-3.14-8.85-5.45-12.54-9-5.86-5.57-11.94-11.24-16.29-17.94-4-6.1-5.58-13.7-8.53-20.51-4.49-10.39-1.54-20.51,1.11-30.52.83-3.16,3.31-6.22,5.78-8.53,5.93-5.56,12.14-10.88,19.5-14.54,1.23-.61,2.84-.46,4.27-.65,2-.26,4.41.15,5.86-.86,6.06-4.26,12.3-2.64,18.63-1.3,1.94.41,3.9.67,5.84,1,5.35,1.05,6.14,3,3.2,7.81-1.16,1.9-2.33,3.81-3.36,5.78-5.8,11.12-3.61,22.51-1,33.87a91.17,91.17,0,0,0,3.2,10.73,30.76,30.76,0,0,0,3.81,7.81c7.07,9.49,14.74,18.42,24.87,24.88A60.57,60.57,0,0,1,1581.75,519.41Zm-56.83-20.85c7.43-5.41,6.73-12,5.08-18.84-6-2.29-3.16,5.59-7,5.71,3,3.58-.17,7-.16,10.53C1522.89,496.7,1524,497.43,1524.92,498.56Zm-3.66-31.93c-.69,5.14-8.52,8.95-3.67,15.66C1525.24,478.24,1522.73,472.29,1521.26,466.63Zm-5.62,42.92c2.55-.41,3.26-.49,4-.64s1.37-.37,2-.54c-.07-5.68-.07-5.68-6.65-8.44l4.37,7ZM1537,482.21c.85,2.7,1.84,4.49,1.86,6.29,0,2.33-.14,4.28,3,4.58C1542.05,486,1541.43,484.44,1537,482.21Zm-15-35.83c-4.83-1.55-5.65.05-4.8,4.78ZM1538.78,504c2.28-1.71,3.45-3.41,0-5.24Zm-14.44,2.58c2.06-.69,4.31-1.7.9-3.3C1524.93,504.38,1524.63,505.47,1524.34,506.55Zm5.29-32a8.75,8.75,0,0,0-2.72-.84c-.55,0-1,.83-1.55,1.29a20.38,20.38,0,0,0,2.84,1.51C1528.36,476.55,1528.91,475.53,1529.63,474.53Z"/><path class="a" d="M2469.12,571.23c-1.53,3.35-4.52,3.27-8.4,4,2.51-4,5-5,8.44-3.72Z"/><path class="a" d="M2703.57,477.42l4.77.77c.92,2.45.07,4.55-2.06,4.52-1.34,0-2.64-2.36-4-3.66Z"/><path class="a" d="M2721.07,487c0-.25-.08-.5-.1-.75-.1-1.31-.19-2.63-.28-3.95.85.22,2.15.19,2.46.72,1.41,2.42-1.17,2.67-2.27,3.74Z"/><path class="a" d="M2466.19,555c-4.24,3.31-4.74,7.62-1.83,13.92-8.7-8.64-8.9-11.55-1.28-18.82l3.2,5.08Z"/></svg>