<svg xmlns="http://www.w3.org/2000/svg" width="26.86mm" height="9.29mm" viewBox="0 0 76.15 26.32"><defs><style>.a{fill:#fff;}.b{fill:#d51130;}</style></defs><title>partner</title><path class="a" d="M34.22,6.84V8.49H35c.7,0,.74-.15.74-.56H36V9.37h-.25c0-.4,0-.55-.74-.55h-.8v1.74H35c.86,0,1.27-.07,1.33-.69h.24v1H32.71v-.25h.19c.52,0,.56-.17.56-.59V7.35c0-.38,0-.59-.56-.59h-.19V6.51h3.84v1h-.24c-.05-.61-.45-.69-1.33-.69Z"/><path class="a" d="M39.91,6.51l2.88,3.27h0V7.31c0-.45-.13-.55-.53-.55H42.1V6.51h1.81v.25H43.7c-.38,0-.51.13-.51.55v3.58h-.4L39.72,7.42h0V10c0,.42.09.59.51.59h.21v.26H38.6v-.26h.21c.45,0,.51-.16.51-.59V7l-.1-.08a.49.49,0,0,0-.43-.15H38.6V6.51Z"/><path class="a" d="M49.37,7.83h-.25A1.31,1.31,0,0,0,47.7,6.76a1.69,1.69,0,0,0-1.78,1.9c0,1.09.52,2,1.77,2a1.9,1.9,0,0,0,.91-.2V9.76c0-.54,0-.67-.51-.67h-.22V8.83H50v.26h-.14c-.51,0-.51.18-.51.63v1a5.81,5.81,0,0,1-1.65.27,2.29,2.29,0,1,1-.06-4.54,6.24,6.24,0,0,1,1.71.28Z"/><path class="a" d="M51.7,10.63h.19c.54,0,.56-.16.56-.58V7.35c0-.42-.05-.59-.54-.59H51.7V6.51H54v.25h-.2c-.52,0-.55.17-.55.59v3.21h.73c.91,0,1.27-.1,1.33-.69h.24v1H51.7Z"/><path class="a" d="M59.3,6.76h-.2c-.52,0-.55.17-.55.59v2.7c0,.52.12.59.55.59h.2v.25H57v-.25h.2c.52,0,.56-.17.56-.59V7.35c0-.49-.1-.59-.56-.59H57V6.51H59.3Z"/><path class="a" d="M61.26,9.6h.24a1.11,1.11,0,0,0,1.17,1c.46,0,.93-.18.93-.66,0-.3-.2-.53-.92-1-1.11-.67-1.39-.95-1.39-1.48s.58-1.1,1.48-1.1a4.64,4.64,0,0,1,1.38.24V7.78h-.24a1,1,0,0,0-1.09-1c-.46,0-.81.18-.81.55s.24.48.82.85c1.19.75,1.49,1,1.49,1.6S63.9,11,62.71,11a4.25,4.25,0,0,1-1.45-.25Z"/><path class="a" d="M70,8.47V7.35c0-.44-.05-.59-.56-.59h-.19V6.51h2.27v.25h-.2c-.52,0-.56.17-.56.59v2.7c0,.44.07.59.56.59h.2v.25H69.29v-.25h.19c.51,0,.56-.15.56-.59V8.82H67.69v1.23c0,.52.12.59.55.59h.2v.25H66.17v-.25h.21c.52,0,.55-.17.55-.59V7.35c0-.49-.1-.59-.55-.59h-.21V6.51h2.27v.25h-.2c-.52,0-.55.17-.55.59V8.47Z"/><path class="a" d="M36.58,17.24V16.12c0-.44,0-.59-.56-.59h-.2v-.25H38.1v.25h-.2c-.52,0-.56.17-.56.59v2.7c0,.44.06.58.56.58h.2v.26H35.82V19.4H36c.51,0,.56-.14.56-.58V17.59H34.22v1.23c0,.52.13.58.56.58H35v.26H32.71V19.4h.2c.52,0,.55-.16.55-.58v-2.7c0-.49-.09-.59-.55-.59h-.2v-.25H35v.25h-.2c-.52,0-.56.17-.56.59v1.12Z"/><path class="a" d="M41.19,15.61v1.65H42c.71,0,.75-.15.75-.56H43v1.44h-.24c0-.4,0-.55-.75-.55h-.79v1.74H42c.85,0,1.26-.07,1.32-.69h.24v1H39.67v-.25h.19c.52,0,.57-.17.57-.59v-2.7c0-.38,0-.59-.57-.59h-.19v-.25h3.84v1h-.24c-.05-.61-.44-.69-1.32-.69Z"/><path class="a" d="M46.54,17.36h.6c.82,0,1.22-.29,1.22-.88s-.39-.87-1.22-.87h-.6Zm0,1.5c0,.49.19.54.56.54h.2v.26H45V19.4h.2c.38,0,.56,0,.56-.53V16.12c0-.39,0-.59-.56-.59H45v-.25H47.1c.83,0,2.07,0,2.07,1.19A1.17,1.17,0,0,1,48,17.66v0a3,3,0,0,1,.29.35l.64.89c.33.44.4.47.66.47v.26h-.31a1.13,1.13,0,0,1-1.12-.55L47.37,18c-.24-.32-.36-.35-.53-.35h-.3Z"/><path class="a" d="M53.52,15.53h-.2c-.52,0-.55.17-.55.59v2.7c0,.52.12.59.55.59h.2v.25H51.25v-.25h.2c.52,0,.56-.17.56-.59v-2.7c0-.49-.1-.59-.56-.59h-.2v-.25h2.27Z"/><path class="a" d="M59.37,16.3h-.24c-.05-.53-.29-.69-1.24-.69h-.22v3.21c0,.47.07.58.56.58h.2v.26H56.15V19.4h.2c.54,0,.56-.17.56-.58V15.61h-.22c-.89,0-1.19.16-1.23.69h-.24v-1h4.15Z"/><path class="a" d="M63.33,17.59l-.68-1.71h-.07L62,17.59Zm2.06,2.07H63.3V19.4h.14c.15,0,.46,0,.46-.25a1.37,1.37,0,0,0-.1-.38l-.33-.84h-1.6l-.27.76a1.38,1.38,0,0,0-.14.49c0,.17.23.22.45.22h.16v.26H60.39V19.4h.11c.37,0,.48-.08.72-.75l1.2-3.37h.71l1.46,3.45c.23.53.35.67.69.67h.11Z"/><path class="a" d="M70.68,16.6h-.25A1.31,1.31,0,0,0,69,15.53a1.69,1.69,0,0,0-1.78,1.9c0,1.09.52,2,1.77,2a1.9,1.9,0,0,0,.91-.2v-.67c0-.54,0-.67-.51-.67h-.22V17.6h2.15v.26h-.14c-.51,0-.51.18-.51.63v1a5.81,5.81,0,0,1-1.65.27A2.29,2.29,0,1,1,69,15.2a6.24,6.24,0,0,1,1.71.28Z"/><path class="a" d="M73.82,15.61v1.65h.79c.71,0,.75-.15.75-.56h.24v1.44h-.24c0-.4,0-.55-.75-.55h-.79v1.74h.76c.85,0,1.27-.07,1.32-.69h.25v1H72.3v-.25h.19c.52,0,.57-.17.57-.59v-2.7c0-.38,0-.59-.57-.59H72.3v-.25h3.85v1H75.9c-.05-.61-.44-.69-1.32-.69Z"/><path class="b" d="M26.17,7.42V3.63H22.56V0H18.79V3.46H15.15V.39H11V3.46H7.37V0H3.6V3.63H0V7.42H3.44v3.66h-3v4.16H3.44V18.9H0v3.8H3.6v3.62H7.37V22.86H11v3.07h4.13V22.86h3.64v3.46h3.77V22.7h3.61V18.9H22.73V15.24h3.05V11.08H22.73V7.42ZM18.76,18.87H7.4V7.45H18.76Z"/></svg>